<?xml version="1.0" standalone="no"?>
<!DOCTYPE svg PUBLIC "-//W3C//DTD SVG 20010904//EN"
 "http://www.w3.org/TR/2001/REC-SVG-20010904/DTD/svg10.dtd">
<svg version="1.0" xmlns="http://www.w3.org/2000/svg"
 width="1300.000000pt" height="1300.000000pt" viewBox="0 0 1300.000000 1300.000000"
 preserveAspectRatio="xMidYMid meet">
<metadata>
Created by potrace 1.11, written by Peter Selinger 2001-2013
</metadata>
<g transform="translate(0.000000,1300.000000) scale(0.100000,-0.100000)"
fill="#000000" stroke="none">
<path d="M2358 11848 c-9 -7 -7 -8 7 -3 13 4 16 3 10 -3 -5 -5 -21 -13 -35
-17 -19 -5 -21 -4 -10 4 9 6 10 11 3 11 -23 0 -43 -12 -36 -23 4 -6 1 -7 -6
-3 -15 9 -47 -2 -169 -61 -82 -40 -91 -47 -80 -62 12 -14 11 -14 -4 -3 -14 12
-20 11 -38 -1 -11 -7 -17 -17 -12 -22 4 -5 1 -5 -5 -1 -19 10 -133 -74 -247
-184 -90 -87 -155 -162 -213 -246 -29 -43 -123 -203 -123 -210 0 -3 -11 -30
-26 -61 -14 -31 -23 -62 -20 -70 3 -8 2 -12 -3 -8 -12 7 -35 -61 -27 -80 9
-24 26 -17 26 10 0 15 6 25 15 25 14 0 155 134 155 148 0 4 18 20 40 36 22 17
40 36 40 43 0 7 9 13 20 13 11 0 20 5 20 11 0 14 104 119 118 119 18 0 3 26
-20 37 -18 8 -18 10 -5 21 13 11 16 10 22 -7 6 -21 35 -37 35 -20 0 6 29 40
65 75 36 36 65 69 65 74 0 6 5 10 11 10 13 0 69 58 69 71 0 5 4 9 10 9 19 0
311 302 306 317 -3 8 -2 11 3 8 12 -7 61 15 61 27 0 5 12 6 28 3 21 -4 23 -3
7 3 l-20 9 20 5 c12 3 8 5 -12 5 -17 0 -38 -4 -45 -9z m-924 -914 c5 -14 4
-15 -9 -4 -17 14 -19 20 -6 20 5 0 12 -7 15 -16z"/>
<path d="M2615 11330 c-214 -49 -419 -173 -559 -338 l-20 -23 100 -102 99
-102 -100 98 -101 98 -20 -23 c-20 -22 -84 -124 -84 -133 0 -2 -14 -34 -30
-71 -48 -105 -71 -213 -75 -354 -2 -69 -1 -109 1 -90 5 35 5 35 49 32 30 -3
45 -9 48 -20 3 -11 5 -8 7 8 l2 25 9 -25 c7 -19 8 -14 5 22 -3 47 -3 47 14 25
16 -20 18 -59 22 -422 2 -239 7 -406 13 -415 7 -11 12 4 16 55 8 90 8 57 9
-1257 l0 -1047 31 -36 c18 -20 34 -33 37 -30 4 3 7 97 9 208 1 111 6 243 11
292 8 86 9 80 13 -110 l3 -200 6 195 c3 107 7 158 8 113 1 -45 6 -84 11 -88 6
-3 8 17 7 47 -2 29 -1 36 1 16 l4 -38 879 0 c694 0 879 -3 883 -12 3 -10 7
-10 20 0 21 18 62 12 62 -10 0 -9 4 -20 8 -25 5 -4 8 -3 7 2 -4 19 0 35 9 35
5 0 8 -11 7 -24 -3 -24 -3 -24 29 7 18 18 31 34 29 36 -2 3 -10 -1 -16 -7 -17
-17 -32 -15 -58 8 -27 23 -19 40 10 22 16 -10 21 -9 30 6 9 16 11 16 20 0 6
-10 16 -18 22 -18 7 0 6 5 -2 15 -15 18 1 20 18 3 8 -8 12 -8 12 -1 0 6 -16
24 -36 42 -32 27 -36 35 -31 65 3 18 1 38 -5 44 -20 20 2 57 76 132 75 73 76
74 108 63 18 -7 45 -9 59 -7 20 5 32 -2 61 -34 25 -28 39 -37 47 -29 7 7 7 16
-1 31 -10 19 -10 20 6 7 15 -13 20 -12 39 7 l21 22 -49 50 c-26 27 -52 47 -57
44 -5 -3 -18 2 -29 12 -19 17 -19 18 3 41 12 13 26 23 33 23 6 0 39 -29 74
-64 54 -55 66 -62 78 -51 8 9 11 24 8 38 -4 15 4 45 21 82 26 58 25 83 -4 93
-6 2 -33 -17 -59 -42 -36 -34 -50 -43 -60 -34 -22 18 -15 33 37 82 58 55 92
60 139 20 37 -31 39 -60 10 -124 l-20 -44 25 23 c14 13 23 28 20 33 -3 5 0 7
8 6 7 -2 12 5 12 14 -1 10 3 15 8 12 13 -8 69 46 61 60 -3 6 -2 8 2 3 9 -7 85
60 85 75 0 18 -27 6 -64 -27 -30 -27 -42 -32 -53 -24 -20 17 -16 32 17 64 17
16 30 39 30 52 0 37 -35 28 -87 -23 -45 -45 -46 -46 -65 -27 -18 19 -18 20 41
76 50 48 65 57 97 57 28 0 42 -7 60 -27 13 -16 24 -33 24 -38 0 -6 13 -16 30
-22 23 -9 32 -8 40 3 9 10 -2 26 -54 75 -36 35 -66 68 -66 74 0 6 27 37 59 69
75 74 106 79 158 23 19 -21 33 -47 33 -62 0 -31 20 -32 48 -2 l22 23 -45 44
c-25 25 -52 57 -60 71 -12 23 -12 29 5 55 10 16 39 49 64 73 38 37 48 42 61
31 23 -19 19 -32 -30 -80 -25 -24 -45 -47 -45 -50 1 -3 10 -16 21 -29 l20 -24
49 48 c42 41 51 46 65 35 21 -17 20 -20 -27 -70 -24 -25 -43 -51 -45 -58 -2
-17 -106 -119 691 678 l686 684 412 -412 c279 -278 414 -407 417 -396 2 11
-140 160 -410 430 l-414 414 -535 -532 c-294 -293 -521 -518 -505 -500 17 19
256 260 533 535 l502 502 -117 117 c-105 105 -148 141 -127 106 4 -7 3 -8 -5
-4 -6 4 -9 11 -7 15 3 4 -18 30 -46 57 -29 27 -45 40 -37 30 13 -18 12 -19
-21 -13 -27 5 -31 4 -17 -4 10 -6 30 -12 45 -13 20 -2 27 -9 29 -27 1 -15 0
-17 -3 -6 -3 9 -15 18 -27 18 -12 1 -29 2 -38 3 -9 1 -24 8 -34 16 -17 14 -18
13 -12 -3 6 -17 -64 -17 -1514 -17 -1189 1 -1518 3 -1512 13 4 8 1 7 -10 -2
-9 -7 -14 -18 -10 -24 3 -6 1 -7 -6 -3 -7 5 -46 -26 -103 -84 l-92 -91 525
-527 524 -527 -527 525 -527 524 -401 -399 c-369 -369 -415 -413 -407 -400 1
2 182 184 402 405 l399 400 -69 70 c-37 38 -72 67 -76 65 -4 -3 -12 2 -19 10
-7 8 -9 15 -5 15 8 0 -34 39 -44 41 -27 6 -50 5 -45 -2 2 -5 -94 -10 -214 -11
-214 -3 -219 -3 -215 17 4 15 2 17 -5 6 -8 -11 -11 -11 -16 0 -3 8 -4 4 -2 -9
2 -12 0 -20 -5 -16 -15 9 -10 104 10 179 60 231 241 423 479 508 l87 31 525 4
525 3 40 37 40 37 -34 -37 -35 -38 879 0 879 0 -35 38 -34 37 40 -37 41 -38
989 0 989 0 41 38 40 37 -34 -37 -35 -38 889 0 889 0 -35 38 -34 37 40 -37 40
-37 510 -3 510 -4 89 -32 c127 -45 189 -85 292 -188 l92 -92 91 92 c50 50 91
97 91 104 0 8 -30 44 -68 80 -128 127 -250 206 -397 256 -173 60 110 56 -4018
55 -3629 -1 -3795 -1 -3872 -19z m2750 -100 c27 -27 47 -50 44 -50 -3 0 -27
23 -54 50 -27 28 -47 50 -44 50 3 0 27 -22 54 -50z m3780 0 c27 -27 47 -50 44
-50 -3 0 -27 23 -54 50 -27 28 -47 50 -44 50 3 0 27 -22 54 -50z m-7165 -860
c0 -5 -4 -10 -10 -10 -5 0 -10 5 -10 10 0 6 5 10 10 10 6 0 10 -4 10 -10z
m3188 -1395 c-3 -3 -9 2 -12 12 -6 14 -5 15 5 6 7 -7 10 -15 7 -18z m0 -40
c-3 -3 -9 2 -12 12 -6 14 -5 15 5 6 7 -7 10 -15 7 -18z m-727 -912 c13 -16 12
-17 -3 -4 -10 7 -18 15 -18 17 0 8 8 3 21 -13z m-2321 -187 c0 -52 -6 -43 -13
18 -3 30 -1 43 4 35 5 -8 9 -32 9 -53z m1887 -18 c-3 -8 -6 -5 -6 6 -1 11 2
17 5 13 3 -3 4 -12 1 -19z m33 -105 c0 -11 -3 -14 -8 -7 -4 6 -14 14 -22 17
-10 4 -8 6 8 6 15 1 22 -5 22 -16z"/>
<path d="M10886 10851 l-98 -99 35 -63 c57 -103 89 -239 71 -307 l-7 -23 -237
2 c-149 1 -244 -3 -256 -9 -10 -6 -57 -49 -104 -96 l-85 -86 385 -385 385
-385 6 92 c3 51 7 75 8 53 l3 -40 13 40 c10 29 14 129 15 380 1 187 5 363 10
390 4 28 8 40 9 29 1 -19 8 -23 49 -26 34 -3 50 0 59 12 10 13 13 9 14 -20 1
-22 5 -9 11 35 4 39 6 93 3 120 -12 124 -77 303 -155 427 l-36 57 -98 -98z
m-486 -547 c0 -8 -19 -13 -24 -6 -3 5 1 9 9 9 8 0 15 -2 15 -3z"/>
<path d="M9880 10506 c0 -2 8 -10 18 -17 15 -13 16 -12 3 4 -13 16 -21 21 -21
13z"/>
<path d="M10499 10493 c-13 -16 -12 -17 4 -4 9 7 17 15 17 17 0 8 -8 3 -21
-13z"/>
<path d="M6093 10467 c0 -8 6 -14 14 -14 9 0 10 4 2 14 -6 7 -12 13 -14 13 -1
0 -2 -6 -2 -13z"/>
<path d="M3109 10433 c-13 -16 -12 -17 4 -4 9 7 17 15 17 17 0 8 -8 3 -21 -13z"/>
<path d="M6869 10433 c-13 -16 -12 -17 4 -4 16 13 21 21 13 21 -2 0 -10 -8
-17 -17z"/>
<path d="M3061 10416 c-9 -11 -9 -16 1 -22 7 -4 10 -4 6 1 -4 4 -3 14 3 22 6
7 9 13 6 13 -2 0 -10 -6 -16 -14z"/>
<path d="M6195 10421 c-4 -7 0 -8 11 -4 13 5 16 2 12 -9 -4 -8 -2 -21 3 -29 5
-9 7 -5 6 15 -2 30 -20 45 -32 27z"/>
<path d="M6821 10416 c-9 -11 -9 -16 1 -22 7 -4 10 -4 6 1 -4 4 -3 14 3 22 6
7 9 13 6 13 -2 0 -10 -6 -16 -14z"/>
<path d="M9972 10413 c9 -11 8 -17 -3 -24 -19 -12 -29 -11 -29 1 0 6 5 10 12
10 6 0 9 2 6 5 -9 9 -35 -5 -35 -18 0 -16 37 -20 54 -5 10 8 19 5 38 -12 21
-20 23 -20 19 -3 -3 10 -15 23 -27 29 -12 5 -21 14 -20 20 1 6 -5 11 -12 11
-12 0 -12 -3 -3 -14z"/>
<path d="M10413 10416 c1 -6 -8 -15 -20 -20 -12 -6 -24 -19 -28 -31 -5 -19 -6
-19 -20 5 -9 16 -14 19 -15 10 0 -9 6 -22 13 -29 10 -11 8 -11 -10 -2 -11 6
-56 10 -100 10 -155 -1 -163 0 -163 19 -1 13 -4 11 -15 -8 -17 -30 -18 -40 -4
-40 5 0 8 4 4 9 -3 5 0 13 7 17 7 4 10 4 6 -1 -4 -4 -2 -15 5 -23 9 -13 9 -14
0 -8 -25 14 -12 -3 57 -75 l70 -74 70 74 c68 71 82 90 58 75 -7 -4 -8 -3 -4 5
4 6 11 9 16 6 5 -3 23 9 39 27 23 26 32 30 43 21 18 -15 55 -13 55 4 0 13 -26
27 -35 18 -3 -3 0 -5 6 -5 7 0 12 -4 12 -10 0 -12 -10 -13 -29 -1 -11 7 -12
13 -3 24 9 11 9 14 -3 14 -7 0 -13 -5 -12 -11z m-279 -74 c3 -5 -8 -6 -25 -4
-16 2 -29 6 -29 8 0 8 49 4 54 -4z m179 1 c-7 -2 -19 -2 -25 0 -7 3 -2 5 12 5
14 0 19 -2 13 -5z"/>
<path d="M2982 10390 c-24 -22 -29 -40 -11 -40 5 0 7 5 4 10 -3 6 -2 10 4 10
22 0 19 -18 -4 -28 -18 -8 -24 -8 -22 0 1 6 -4 13 -12 16 -9 3 -11 0 -6 -9 6
-11 5 -12 -6 -1 -7 6 -20 12 -28 12 -13 -1 -12 -4 3 -15 11 -8 15 -15 9 -15
-6 0 -16 7 -23 16 -11 12 -33 15 -112 13 -67 -1 -103 2 -113 11 -9 7 -19 10
-22 6 -4 -4 -2 -11 5 -15 8 -4 14 -16 16 -25 1 -9 5 -15 9 -14 4 2 40 -30 81
-71 l75 -74 92 92 c57 58 93 102 95 117 3 29 -5 30 -34 4z m28 -10 c0 -5 -4
-10 -10 -10 -5 0 -10 5 -10 10 0 6 5 10 10 10 6 0 10 -4 10 -10z m-304 -54 c2
-13 -1 -14 -10 -7 -7 6 -15 9 -18 6 -2 -3 -5 1 -5 9 0 20 30 13 33 -8z"/>
<path d="M3087 10392 c-15 -17 -15 -18 3 -19 23 -2 36 15 23 28 -6 6 -16 3
-26 -9z m23 -2 c0 -5 -5 -10 -11 -10 -5 0 -7 5 -4 10 3 6 8 10 11 10 2 0 4 -4
4 -10z"/>
<path d="M6755 10398 c-31 -18 -47 -48 -24 -48 5 0 7 5 4 10 -9 14 8 13 23 -2
7 -7 13 -8 13 -2 3 22 6 54 5 54 0 0 -10 -6 -21 -12z m15 -18 c0 -5 -4 -10
-10 -10 -5 0 -10 5 -10 10 0 6 5 10 10 10 6 0 10 -4 10 -10z"/>
<path d="M6843 10391 c-10 -16 -8 -18 10 -17 12 1 22 7 22 15 0 22 -19 23 -32
2z m27 -1 c0 -5 -5 -10 -11 -10 -5 0 -7 5 -4 10 3 6 8 10 11 10 2 0 4 -4 4
-10z"/>
<path d="M6801 10367 c-6 -8 -7 -18 -3 -22 4 -5 1 -5 -6 -1 -9 5 -39 -18 -92
-71 -105 -105 -197 -192 -182 -172 6 8 63 68 127 132 64 64 113 117 110 117
-4 0 -15 -5 -26 -10 -14 -8 -19 -8 -17 1 2 6 -3 14 -11 17 -9 3 -11 0 -6 -9 6
-11 5 -12 -6 -1 -7 6 -20 12 -28 12 -13 -1 -12 -4 3 -15 11 -8 15 -15 9 -15
-6 0 -16 7 -23 15 -10 12 -44 15 -186 15 -110 0 -175 -4 -179 -10 -5 -8 -11
-7 -21 1 -8 6 -16 10 -19 8 -2 -2 241 -250 541 -549 l544 -545 0 178 0 177
695 0 695 0 0 -897 1 -898 24 -27 c13 -16 39 -38 57 -50 18 -13 34 -27 36 -33
4 -19 27 -10 24 10 -2 16 -1 17 7 5 7 -9 6 -19 -1 -27 -6 -8 -8 -17 -4 -20 9
-9 26 17 26 40 0 10 7 17 18 16 10 0 12 -3 5 -6 -21 -8 -14 -25 7 -18 15 5 18
3 14 -9 -3 -9 -1 -16 5 -16 7 0 14 7 17 15 4 10 20 15 45 15 37 0 39 -2 39
-30 0 -24 -4 -30 -22 -30 -23 0 -23 0 2 -20 14 -10 27 -15 28 -10 2 6 353 10
927 10 l924 0 4 83 c1 45 4 -48 5 -206 1 -159 -2 -286 -6 -283 -5 3 -9 -1 -9
-9 0 -8 5 -11 10 -8 6 4 8 0 4 -10 -10 -26 6 -20 41 16 l32 33 0 1064 0 1065
-390 390 -390 390 -515 -515 c-283 -284 -515 -513 -515 -510 0 3 231 236 512
517 l513 513 -64 64 c-36 36 -69 62 -74 59 -6 -3 -7 -1 -4 5 6 9 -46 62 -61
62 -4 0 -715 0 -1581 0 -1035 0 -1578 4 -1586 10 -9 7 -16 6 -24 -3z m3229
-63 c0 -8 -19 -13 -24 -6 -3 5 1 9 9 9 8 0 15 -2 15 -3z m-1158 -1801 c99
-100 98 -142 -5 -244 l-62 -61 -3 38 c-2 22 1 40 7 42 7 2 27 20 46 40 48 51
46 81 -10 141 -30 32 -45 57 -45 75 0 14 4 26 8 26 4 0 33 -26 64 -57z m-32
-753 c0 -5 -2 -10 -4 -10 -3 0 -8 5 -11 10 -3 6 -1 10 4 10 6 0 11 -4 11 -10z"/>
<path d="M4832 7779 c-914 -913 -1661 -1663 -1658 -1667 3 -4 -4 -9 -15 -9
-13 -1 -42 21 -82 63 -33 36 -69 69 -78 74 -15 9 -94 -9 -224 -49 -16 -5 -66
-19 -110 -31 l-80 -22 -282 -281 -283 -282 0 -975 0 -975 128 -128 c70 -70
130 -125 134 -122 3 3 11 -1 18 -10 7 -8 9 -15 4 -15 -4 0 3 -11 16 -25 12
-13 26 -22 30 -20 4 3 15 -4 25 -15 10 -11 15 -20 11 -20 -4 0 4 -11 16 -24
14 -14 27 -20 34 -15 7 6 18 1 29 -11 10 -11 15 -20 10 -20 -4 0 -2 -6 4 -14
14 -17 0 -29 -24 -20 -14 6 -14 8 -1 23 14 15 13 17 -9 17 -13 0 -22 -3 -19
-7 2 -4 0 -10 -5 -13 -5 -4 -12 -2 -15 3 -4 5 -2 12 4 16 6 3 0 16 -13 29 -14
15 -26 20 -33 15 -14 -11 -32 10 -29 33 2 9 -8 27 -21 39 -13 12 -24 19 -24
15 0 -5 -7 -3 -15 4 -8 7 -13 15 -10 19 2 4 -52 63 -121 132 l-126 124 5 -370
c4 -322 8 -380 24 -445 40 -153 139 -314 257 -415 l57 -48 27 24 27 24 -23
-26 -23 -27 48 -29 c26 -16 80 -41 119 -56 134 -52 180 -57 558 -57 l350 0
-28 29 -28 29 -341 5 c-374 5 -389 7 -528 71 -144 65 -278 193 -348 333 -55
111 -73 190 -76 353 -2 93 -1 141 4 120 7 -30 9 -24 11 40 3 69 4 72 10 30 7
-44 7 -44 10 -10 l3 35 7 -35 7 -35 3 30 c1 18 4 23 7 13 2 -10 9 -18 15 -18
5 0 8 -7 4 -15 -4 -11 1 -15 17 -14 12 0 16 3 10 6 -7 2 -13 9 -13 14 0 13
217 12 225 -1 4 -6 11 -8 16 -5 5 4 9 1 9 -4 0 -15 23 -14 56 3 41 22 629 23
637 2 3 -8 3 -17 -1 -21 -4 -4 -7 -11 -7 -15 0 -5 -9 -16 -20 -24 -11 -9 -16
-16 -12 -16 14 0 117 102 112 111 -3 4 0 11 6 15 8 4 7 9 -2 16 -11 8 -10 9 4
4 11 -4 17 0 18 12 0 16 1 16 7 0 6 -15 10 -14 35 7 28 25 37 42 15 29 -10 -6
-10 -5 -1 8 7 8 9 19 5 23 -4 5 -1 5 6 1 7 -4 10 -12 7 -17 -12 -19 4 -8 39
27 37 37 46 51 24 38 -9 -5 -9 -2 1 9 15 18 26 23 16 7 -19 -31 28 13 240 223
l235 234 0 1218 0 1217 101 98 c65 62 97 99 88 102 -8 3 -23 1 -34 -3 -11 -4
-65 -15 -120 -24 -86 -14 -193 -35 -271 -52 -13 -3 81 98 221 237 163 163 247
240 256 235 8 -6 10 -4 4 4 -9 15 33 63 48 54 6 -3 7 -2 4 4 -3 5 45 60 107
121 101 101 140 133 120 100 -4 -7 -3 -8 4 -4 6 4 9 13 6 20 -8 21 14 30 34
14 15 -12 16 -11 3 5 -10 13 -11 20 -1 31 6 8 17 13 25 10 7 -3 16 0 21 7 4 8
3 10 -4 5 -29 -18 -6 12 71 90 45 46 88 84 95 84 7 0 10 5 6 11 -4 7 2 6 17
-2 22 -11 23 -11 10 5 -12 14 -11 20 9 41 13 14 26 22 29 19 3 -3 0 -9 -7 -13
-10 -6 -10 -10 0 -19 11 -8 14 -7 14 6 2 48 22 75 42 55 23 -22 39 -13 33 20
-1 4 4 17 10 29 9 16 8 19 -3 12 -7 -4 0 5 15 21 25 26 31 27 49 16 12 -8 17
-8 13 -1 -12 19 14 38 48 35 17 -2 124 -3 235 -4 195 -1 204 -2 209 -21 6 -22
18 -26 29 -9 3 6 1 15 -6 19 -8 5 1 8 23 7 20 0 34 -5 31 -9 -3 -4 -1 -8 5 -8
5 0 13 5 16 10 3 6 12 10 18 10 7 0 6 -4 -3 -10 -13 -8 -13 -10 2 -10 17 0 34
-17 25 -26 -3 -3 -14 -1 -25 5 -19 10 -20 8 -17 -19 4 -29 -7 -40 -20 -20 -3
6 -14 10 -23 9 -14 0 -13 -2 3 -9 41 -16 55 -46 30 -63 -13 -10 -11 -12 14
-12 28 0 29 1 13 19 -16 17 -16 18 3 15 15 -3 19 1 17 15 -2 13 1 17 11 13 7
-3 20 -1 28 5 11 8 11 9 -3 5 -19 -7 -29 12 -21 42 3 13 1 21 -6 21 -7 0 -9 5
-6 10 4 7 458 10 1331 10 876 0 1324 -3 1324 -10 0 -5 5 -10 11 -10 5 0 8 4 5
9 -8 12 29 20 45 10 8 -5 17 -3 21 4 5 8 8 6 8 -5 0 -10 6 -19 13 -19 6 -1 17
-2 22 -4 6 -1 16 -3 23 -3 6 -1 12 -7 12 -13 0 -6 -9 -8 -22 -4 -22 6 -22 5
-5 -9 14 -11 15 -15 5 -19 -7 -2 -3 -2 9 -1 12 2 24 -2 26 -9 4 -9 6 -9 6 1 1
9 12 5 32 -12 17 -14 35 -26 41 -26 6 0 -5 13 -25 29 -20 15 -34 31 -31 34 3
2 -9 15 -25 27 -27 19 -31 27 -31 69 0 46 -2 49 -31 55 -22 4 -73 49 -189 167
-174 175 -177 182 -153 269 11 40 10 49 -7 86 -26 52 -26 120 0 159 27 42 351
355 367 355 10 0 13 47 13 215 l0 215 -275 0 -275 0 -2 -502 -3 -502 -218 220
c-120 120 -224 218 -230 216 -7 -2 -9 0 -4 4 4 4 -158 174 -360 377 -415 416
-426 427 -433 427 -3 0 -753 -748 -1668 -1661z m353 143 c-3 -3 -11 0 -18 7
-9 10 -8 11 6 5 10 -3 15 -9 12 -12z m2855 -12 c0 -5 -2 -10 -4 -10 -3 0 -8 5
-11 10 -3 6 -1 10 4 10 6 0 11 -4 11 -10z m-2924 -42 c4 -7 4 -10 -1 -6 -4 4
-14 3 -22 -4 -11 -8 -12 -7 -7 6 7 19 20 21 30 4z m-75 -61 c-6 -8 -8 -17 -4
-21 4 -4 0 -4 -10 0 -9 3 -17 2 -17 -4 0 -6 6 -13 13 -15 9 -4 9 -6 0 -6 -24
-2 -26 23 -3 41 26 21 37 24 21 5z m3184 -85 c-3 -3 -18 7 -33 23 l-27 28 33
-23 c18 -12 31 -25 27 -28z m-3199 12 c18 -15 18 -15 -3 -5 -27 14 -36 14 -28
1 3 -5 -3 -10 -14 -10 -11 0 -23 5 -27 12 -4 6 -3 8 2 5 6 -3 16 -2 24 4 20
12 23 11 46 -7z m3159 -13 c-6 -5 -25 10 -25 20 0 5 6 4 14 -3 8 -7 12 -15 11
-17z m-3228 -17 c6 -17 -31 -50 -54 -50 -29 0 -29 1 5 36 27 29 43 33 49 14z
m3290 -6 c-3 -8 -6 -5 -6 6 -1 11 2 17 5 13 3 -3 4 -12 1 -19z m33 -59 c0 -11
-4 -17 -10 -14 -5 3 -10 15 -10 26 0 11 5 17 10 14 6 -3 10 -15 10 -26z
m-3410 1 c0 -5 -5 -10 -11 -10 -5 0 -7 5 -4 10 3 6 8 10 11 10 2 0 4 -4 4 -10z
m3470 -56 c0 -8 -5 -12 -10 -9 -6 4 -8 11 -5 16 9 14 15 11 15 -7z m-2844 -9
c14 -13 14 -16 -1 -21 -13 -5 -13 -9 -3 -23 12 -14 11 -15 -5 -2 -13 10 -15
17 -6 27 8 10 8 14 0 14 -6 0 -11 5 -11 10 0 14 9 12 26 -5z m-714 -22 c-10
-4 -10 -8 -1 -19 8 -9 8 -14 1 -14 -15 0 -25 18 -17 30 3 6 12 10 18 9 8 0 8
-2 -1 -6z m-1262 -1788 c179 -179 323 -325 320 -325 -3 0 -151 146 -330 325
-179 179 -323 325 -320 325 3 0 151 -146 330 -325z m-356 -2550 c-10 -8 -26
-14 -34 -14 -9 0 -4 6 10 14 33 19 49 19 24 0z m26 -10 c0 -6 -5 -12 -38 -50
-9 -12 -13 -16 -9 -9 4 7 6 16 5 21 -2 4 4 16 12 25 15 17 30 23 30 13z m-740
-9 c0 -2 -8 -10 -17 -17 -16 -13 -17 -12 -4 4 13 16 21 21 21 13z"/>
<path d="M4920 7690 c-8 -5 -11 -12 -8 -16 4 -3 14 1 23 10 18 17 9 21 -15 6z"/>
<path d="M8124 8557 c-94 -95 -175 -183 -179 -196 -5 -16 1 -38 19 -73 30 -57
31 -77 12 -133 -8 -21 -11 -47 -7 -57 6 -17 153 -171 249 -260 82 -76 82 -76
82 126 0 164 -1 175 -19 181 -28 9 -75 55 -95 92 -20 40 -21 109 -1 156 15 36
79 97 102 97 10 0 13 30 13 120 0 66 -1 120 -2 120 -2 0 -80 -78 -174 -173z
m156 -728 c0 -6 -4 -7 -10 -4 -5 3 -10 11 -10 16 0 6 5 7 10 4 6 -3 10 -11 10
-16z"/>
<path d="M4880 8625 l-34 -35 27 -27 27 -27 30 29 c34 33 38 55 12 78 -24 22
-23 23 -62 -18z"/>
<path d="M4959 8513 l-24 -28 28 24 c25 23 32 31 24 31 -2 0 -14 -12 -28 -27z"/>
<path d="M4143 7938 l-62 -63 3 -57 c3 -59 27 -104 49 -91 5 3 7 1 3 -5 -3 -6
-2 -13 4 -17 6 -3 26 11 45 31 26 28 32 40 23 46 -12 7 -26 11 -39 10 -3 -1
-6 19 -8 43 -4 76 55 109 113 64 14 -11 26 -27 26 -36 0 -13 3 -13 15 -3 8 7
15 19 15 27 0 8 4 12 9 9 4 -3 16 3 26 14 18 20 18 21 -10 50 -22 23 -38 30
-65 30 -19 -1 -46 2 -60 5 -21 5 -35 -4 -87 -57z m198 -15 c13 -16 12 -17 -3
-4 -10 7 -18 15 -18 17 0 8 8 3 21 -13z m-194 -145 c-3 -7 -5 -2 -5 12 0 14 2
19 5 13 2 -7 2 -19 0 -25z m38 -4 c14 -6 14 -8 -1 -25 -19 -21 -34 -25 -34 -9
0 6 7 10 15 10 8 0 15 5 15 11 0 5 -4 7 -10 4 -5 -3 -10 -1 -10 4 0 13 3 13
25 5z m-55 -14 c0 -5 -2 -10 -4 -10 -3 0 -8 5 -11 10 -3 6 -1 10 4 10 6 0 11
-4 11 -10z"/>
<path d="M8886 7684 c-3 -8 3 -25 14 -36 11 -12 20 -17 20 -10 0 6 -5 14 -10
17 -6 4 -8 15 -5 26 7 23 -10 26 -19 3z"/>
<path d="M8943 7686 c-23 -11 -32 -36 -13 -36 6 0 10 5 10 11 0 5 5 7 10 4 6
-3 13 1 16 10 8 21 4 23 -23 11z"/>
<path d="M8955 7640 c6 -10 4 -12 -8 -7 -11 4 -17 1 -17 -9 0 -8 5 -12 10 -9
6 3 10 0 10 -7 0 -13 10 -24 55 -58 19 -14 19 -14 5 5 -8 11 -23 26 -33 33
-11 9 -16 21 -12 32 3 10 0 22 -6 26 -8 5 -9 3 -4 -6z"/>
<path d="M9007 7623 c10 -10 21 -22 25 -28 5 -6 8 -6 8 2 0 14 -28 43 -41 43
-6 0 -2 -8 8 -17z"/>
<path d="M5420 7611 c0 -5 7 -12 16 -15 14 -5 15 -4 4 9 -14 17 -20 19 -20 6z"/>
<path d="M8970 7610 c0 -5 7 -10 16 -10 8 0 12 5 9 10 -3 6 -10 10 -16 10 -5
0 -9 -4 -9 -10z"/>
<path d="M4835 7600 c3 -5 11 -10 16 -10 6 0 7 5 4 10 -3 6 -11 10 -16 10 -6
0 -7 -4 -4 -10z"/>
<path d="M4827 7579 c7 -7 15 -10 18 -7 3 3 -2 9 -12 12 -14 6 -15 5 -6 -5z"/>
<path d="M8247 7576 c-4 -10 -1 -13 9 -9 7 3 14 9 14 14 0 14 -17 10 -23 -5z"/>
<path d="M4004 7572 c3 -5 0 -12 -6 -15 -7 -2 -10 -7 -7 -11 3 -4 12 0 18 8 9
11 9 16 0 22 -7 4 -9 3 -5 -4z"/>
<path d="M9015 7570 c3 -5 8 -10 11 -10 2 0 4 5 4 10 0 6 -5 10 -11 10 -5 0
-7 -4 -4 -10z"/>
<path d="M1142 5210 c-2 -2019 0 -2369 13 -2450 59 -386 228 -714 509 -989
l65 -65 23 20 23 19 -17 -21 c-17 -20 -17 -21 5 -41 12 -11 65 -50 117 -86
242 -165 505 -260 801 -286 158 -15 7467 -15 7629 -1 410 37 755 196 1041 480
246 244 383 483 463 805 44 180 46 214 46 892 l0 648 -50 48 -49 47 -4 -707
c-3 -606 -6 -721 -20 -797 -62 -333 -215 -623 -451 -856 l-76 -74 38 -41 37
-40 -42 39 -43 40 -27 -25 c-157 -142 -416 -266 -683 -327 l-115 -26 -962 -3
c-669 -3 -963 -1 -963 6 0 6 -8 11 -17 11 -15 0 -16 -2 -3 -10 10 -6 -250 -9
-725 -8 -407 1 -708 4 -670 8 l70 6 -100 4 -100 4 120 6 120 6 -130 4 c-105 3
-119 5 -75 10 l55 7 -45 3 c-33 2 -38 4 -17 7 55 9 25 23 -48 23 -76 0 -118
13 -144 44 -10 12 -10 16 -2 16 7 0 9 5 6 10 -3 6 -28 10 -56 10 -37 0 -49 4
-49 15 0 11 -11 15 -40 15 -29 0 -40 4 -40 15 0 11 -11 15 -40 15 -28 0 -40 4
-40 14 0 8 -8 17 -19 21 -23 7 -59 45 -43 45 7 0 12 5 12 10 0 6 -7 10 -15 10
-8 0 -15 -4 -15 -10 0 -17 -18 -11 -44 15 -19 19 -35 25 -71 25 -33 0 -45 4
-45 15 0 8 -4 15 -10 15 -5 0 -20 11 -34 25 -19 19 -35 25 -71 25 -33 0 -45 4
-45 15 0 11 -11 15 -40 15 -22 0 -40 5 -40 10 0 6 -18 10 -40 10 -29 0 -40 4
-40 15 0 11 -11 15 -40 15 -34 0 -40 3 -40 21 0 18 -5 20 -47 18 -57 -3 -73
-8 -73 -21 0 -7 5 -6 14 1 11 9 15 7 19 -11 4 -13 2 -27 -4 -33 -7 -7 -8 -5
-4 6 4 11 -1 18 -16 22 -24 7 -43 -3 -21 -10 13 -5 7 -23 -9 -23 -6 0 -7 4 -4
10 3 5 1 10 -4 10 -6 0 -11 -5 -11 -11 0 -5 -4 -8 -9 -4 -6 3 -15 -5 -22 -17
-7 -12 -21 -30 -32 -38 -19 -16 -16 -47 3 -35 5 3 11 1 14 -4 8 -13 -19 -8
-36 7 -16 13 -38 -1 -38 -24 0 -6 -7 -15 -16 -18 -8 -3 -12 -11 -8 -17 5 -8 3
-9 -5 -5 -14 9 -51 -20 -51 -40 0 -7 -5 -16 -12 -20 -7 -5 -8 -2 -3 7 6 11 5
12 -5 2 -11 -10 -11 -15 1 -30 13 -16 12 -17 -4 -4 -15 12 -20 11 -40 -8 -13
-11 -27 -21 -32 -21 -5 0 1 7 13 16 19 13 21 18 10 32 -10 14 -10 15 1 6 19
-17 71 35 56 56 -8 13 -7 13 6 3 9 -7 19 -10 22 -6 4 3 1 13 -6 22 -10 13 -10
14 3 6 12 -8 21 -4 42 17 25 26 26 33 3 28 -5 -1 1 10 14 24 26 27 32 31 30
19 -4 -22 3 -23 20 -2 14 18 17 28 9 42 -7 14 -5 24 7 37 18 20 61 24 45 4 -6
-6 -6 -15 -2 -19 4 -5 2 -5 -5 -1 -6 3 -14 2 -18 -4 -3 -5 1 -10 9 -10 8 0 23
13 32 29 10 17 22 27 28 24 6 -3 9 -3 6 0 -9 10 -2030 21 -2030 11 0 -5 46
-56 103 -114 l102 -105 -116 113 -116 112 -471 0 c-498 0 -518 1 -677 50 -73
23 -169 72 -243 124 l-43 30 -217 -215 -217 -214 212 215 212 215 -77 73
c-113 106 -148 156 -226 317 -41 86 -63 160 -86 289 -6 34 -11 257 -12 515 0
251 -4 436 -8 411 -5 -30 -7 -36 -8 -17 -1 15 -6 27 -11 27 -5 0 -12 7 -15 16
-5 14 -4 15 9 4 20 -17 21 6 0 26 -9 10 -12 25 -8 44 3 20 1 30 -6 30 -7 0
-10 -8 -7 -18 5 -16 1 -19 -34 -18 -25 0 -36 4 -30 10 6 6 5 16 -1 28 -5 10
-8 18 -7 19 28 7 48 7 53 -1 4 -6 -1 -7 -11 -3 -13 5 -15 3 -9 -7 5 -8 4 -11
-3 -6 -7 4 -10 -1 -9 -14 1 -21 17 -28 17 -7 0 7 9 18 21 25 29 19 17 26 -47
29 -31 1 -63 8 -72 15 -12 10 -16 10 -19 1 -7 -19 -19 -16 -47 12 -19 19 -35
25 -71 25 -33 0 -45 4 -45 15 0 8 -4 15 -10 15 -5 0 -20 11 -34 25 -19 19 -35
25 -71 25 -38 0 -45 -3 -45 -20 0 -11 -4 -20 -9 -20 -5 0 -12 33 -15 73 -8 99
-12 587 -5 587 5 0 3 32 -7 85 -3 17 -1 65 4 108 4 42 6 77 3 77 -3 0 -6 141
-6 312 0 868 -9 2184 -15 2118 -4 -41 -7 -67 -8 -56 -1 11 -7 16 -16 13 -17
-7 -26 13 -20 45 4 21 4 21 -5 3 -5 -11 -10 -33 -10 -49 -2 -63 -13 -12 -20
91 -5 59 -9 -952 -9 -2247z m378 -1265 c0 -8 -4 -15 -9 -15 -5 0 -14 7 -21 15
-10 13 -9 15 9 15 12 0 21 -6 21 -15z m4040 -2069 c0 -2 -8 -10 -17 -17 -16
-13 -17 -12 -4 4 13 16 21 21 21 13z m103 -23 c-5 -12 -3 -14 7 -8 9 6 11 4 5
-4 -5 -9 -11 -9 -17 -3 -6 6 -7 15 -4 21 11 17 16 13 9 -6z m-29 -11 c3 -5 -1
-9 -9 -9 -8 0 -12 4 -9 9 3 4 7 8 9 8 2 0 6 -4 9 -8z m-34 -78 c0 -8 -19 -13
-24 -6 -3 5 1 9 9 9 8 0 15 -2 15 -3z m-430 -118 c0 -3 -4 -8 -10 -11 -5 -3
-10 -1 -10 4 0 6 5 11 10 11 6 0 10 -2 10 -4z m16 -33 c-10 -10 -19 5 -10 18
6 11 8 11 12 0 2 -7 1 -15 -2 -18z m31 -5 c-3 -7 -5 -2 -5 12 0 14 2 19 5 13
2 -7 2 -19 0 -25z m-73 -53 c3 -8 -17 -35 -46 -64 -43 -43 -49 -53 -38 -66 11
-13 7 -15 -29 -15 -61 0 -56 30 20 106 59 60 81 69 93 39z m71 -95 c10 -31
-12 -50 -57 -50 l-39 0 35 35 c41 40 52 43 61 15z m1648 13 c-13 -2 -33 -2
-45 0 -13 2 -3 4 22 4 25 0 35 -2 23 -4z m0 -20 c-13 -2 -33 -2 -45 0 -13 2
-3 4 22 4 25 0 35 -2 23 -4z m0 -20 c-13 -2 -33 -2 -45 0 -13 2 -3 4 22 4 25
0 35 -2 23 -4z m0 -20 c-13 -2 -33 -2 -45 0 -13 2 -3 4 22 4 25 0 35 -2 23 -4z
m85 0 c-10 -2 -26 -2 -35 0 -10 3 -2 5 17 5 19 0 27 -2 18 -5z"/>
<path d="M2103 7520 c0 -25 2 -35 4 -22 2 12 2 32 0 45 -2 12 -4 2 -4 -23z"/>
<path d="M3840 7550 c0 -5 5 -10 10 -10 6 0 10 5 10 10 0 6 -4 10 -10 10 -5 0
-10 -4 -10 -10z"/>
<path d="M3925 7550 c-3 -5 -2 -10 4 -10 6 0 8 -6 5 -14 -3 -8 0 -17 6 -21 17
-10 42 18 34 38 -7 19 -39 23 -49 7z m39 -8 c7 -12 -12 -38 -21 -28 -4 5 -2
11 6 14 11 4 11 6 0 13 -9 6 -10 9 -2 9 6 0 14 -4 17 -8z"/>
<path d="M5567 7554 c-3 -4 1 -13 9 -21 8 -9 18 -12 22 -8 4 4 1 10 -6 12 -6
3 -10 9 -6 14 6 10 -9 12 -19 3z"/>
<path d="M7514 7552 c4 -3 -8 -21 -26 -39 -17 -18 -28 -33 -24 -33 4 0 20 13
34 28 15 16 34 31 42 34 10 3 7 6 -9 11 -13 3 -20 3 -17 -1z"/>
<path d="M7562 7555 c4 -5 3 -14 -3 -22 -6 -7 -8 -13 -3 -13 4 0 -11 -12 -33
-27 -23 -15 -41 -30 -40 -34 1 -4 -12 -20 -29 -36 -16 -15 -22 -22 -13 -15 13
10 23 11 37 3 25 -13 46 7 32 29 -14 22 -13 26 16 45 19 12 29 14 39 5 18 -15
40 -3 26 14 -7 9 -7 16 0 23 8 8 5 15 -12 23 -13 7 -21 9 -17 5z m23 -25 c-3
-5 -11 -10 -16 -10 -6 0 -7 5 -4 10 3 6 11 10 16 10 6 0 7 -4 4 -10z m0 -30
c3 -5 2 -10 -4 -10 -5 0 -13 5 -16 10 -3 6 -2 10 4 10 5 0 13 -4 16 -10z m-81
-82 c-3 -4 -11 -5 -20 -1 -11 4 -12 8 -3 20 10 11 14 11 20 1 4 -6 6 -15 3
-20z"/>
<path d="M9092 7555 c4 -5 0 -14 -9 -20 -14 -11 -20 -10 -30 4 -12 14 -12 14
-6 -3 4 -13 3 -17 -5 -12 -17 10 -15 -5 4 -25 15 -16 18 -17 40 -3 15 10 21
21 17 32 -6 15 -5 15 10 3 9 -7 17 -9 17 -5 0 5 -10 15 -22 23 -13 7 -20 10
-16 6z m-9 -50 c-19 -14 -33 -11 -33 8 0 7 4 6 10 -3 8 -12 10 -12 16 3 3 9
10 14 16 11 5 -3 1 -12 -9 -19z"/>
<path d="M9170 7556 c0 -2 8 -10 18 -17 15 -13 16 -12 3 4 -13 16 -21 21 -21
13z"/>
<path d="M7475 7540 c-4 -6 -13 -9 -21 -6 -8 3 -11 0 -7 -10 3 -7 7 -14 10
-14 9 0 35 31 30 36 -3 3 -8 0 -12 -6z"/>
<path d="M5545 7500 c4 -32 -3 -37 -25 -17 -8 6 -5 0 8 -14 12 -14 20 -28 17
-31 -3 -2 5 -13 17 -24 l23 -19 -20 24 c-20 23 -20 23 0 20 15 -3 19 1 17 15
-3 14 1 17 12 13 14 -6 15 -3 5 16 -12 22 -38 46 -51 47 -3 0 -5 -13 -3 -30z
m31 -5 c14 -13 14 -16 -1 -21 -13 -5 -13 -9 -3 -23 12 -14 11 -15 -5 -2 -13
10 -15 17 -6 27 8 10 8 14 0 14 -6 0 -11 5 -11 10 0 14 9 12 26 -5z"/>
<path d="M9164 7516 c19 -15 19 -16 0 -38 -10 -12 -14 -18 -8 -15 7 4 17 0 23
-7 16 -19 -5 -32 -25 -15 -8 7 -14 8 -13 3 4 -21 -2 -25 -16 -10 -18 18 -20
30 -2 20 7 -4 9 -3 4 2 -5 5 -13 10 -18 10 -22 3 -23 6 -4 14 16 7 17 9 3 9
-29 2 -28 -14 3 -52 32 -39 37 -39 82 -3 16 12 16 18 6 38 -7 12 -15 29 -19
37 -3 8 -13 16 -21 19 -8 2 -6 -3 5 -12z m27 -53 c13 -16 12 -17 -3 -4 -10 7
-18 15 -18 17 0 8 8 3 21 -13z"/>
<path d="M4746 7497 c3 -10 9 -15 12 -12 3 3 0 11 -7 18 -10 9 -11 8 -5 -6z"/>
<path d="M8320 7499 c0 -6 8 -13 19 -16 10 -3 23 -13 27 -24 6 -12 14 -16 22
-10 16 10 4 44 -14 37 -7 -3 -18 2 -24 10 -15 17 -30 18 -30 3z"/>
<path d="M8405 7500 c-3 -5 2 -10 12 -10 15 0 16 -2 3 -11 -13 -9 -12 -10 3
-5 11 3 20 0 23 -9 4 -8 13 -15 21 -15 8 0 11 -5 7 -12 -5 -7 -3 -8 6 -3 9 6
12 4 8 -7 -4 -8 -2 -21 3 -29 7 -11 9 -11 9 -1 0 8 22 -5 50 -28 29 -24 47
-47 43 -53 -3 -7 -3 -9 2 -5 4 4 14 0 21 -10 7 -9 15 -14 18 -11 4 3 -21 31
-54 62 -33 31 -59 59 -58 61 2 3 -15 20 -37 38 -69 58 -73 60 -80 48z m109
-78 c3 -5 -1 -9 -9 -9 -8 0 -12 4 -9 9 3 4 7 8 9 8 2 0 6 -4 9 -8z"/>
<path d="M9130 7495 c7 -9 15 -13 17 -11 7 7 -7 26 -19 26 -6 0 -6 -6 2 -15z"/>
<path d="M2143 7400 c0 -47 2 -66 4 -42 2 23 2 61 0 85 -2 23 -4 4 -4 -43z"/>
<path d="M3849 7478 c0 -2 -2 -15 -4 -30 -4 -27 -3 -27 17 -8 19 17 18 40 -3
40 -5 0 -9 -1 -10 -2z"/>
<path d="M3895 7468 c1 -7 -9 -26 -24 -43 -22 -26 -21 -25 12 4 35 34 47 49
28 37 -5 -4 -12 -1 -14 4 -3 6 -4 5 -2 -2z"/>
<path d="M9250 7476 c0 -2 7 -9 15 -16 9 -7 15 -8 15 -2 0 5 -7 12 -15 16 -8
3 -15 4 -15 2z"/>
<path d="M5656 7456 c24 -18 13 -31 -14 -17 -19 10 -20 8 -17 -19 4 -32 -3
-37 -25 -17 -8 6 -5 0 8 -14 12 -14 20 -28 17 -31 -3 -2 5 -13 17 -24 l23 -19
-20 24 c-20 23 -20 23 0 20 15 -3 19 1 17 15 -3 14 1 17 12 13 14 -5 15 -3 6
13 -5 10 -7 26 -4 35 4 10 1 21 -7 26 -23 14 -34 10 -13 -5z m0 -41 c14 -13
14 -16 -1 -21 -13 -5 -13 -9 -3 -23 12 -14 11 -15 -5 -2 -13 10 -15 17 -6 27
8 10 8 14 0 14 -6 0 -11 5 -11 10 0 14 9 12 26 -5z"/>
<path d="M7395 7459 c-4 -6 -13 -8 -21 -5 -8 3 -11 0 -7 -10 7 -19 16 -18 31
6 7 11 10 20 8 20 -3 0 -8 -5 -11 -11z"/>
<path d="M7450 7459 c0 -5 5 -7 10 -4 6 3 10 8 10 11 0 2 -4 4 -10 4 -5 0 -10
-5 -10 -11z"/>
<path d="M8422 7445 c9 -10 21 -16 28 -13 7 2 -1 10 -16 17 -27 12 -28 11 -12
-4z"/>
<path d="M4675 7440 c3 -5 16 -15 28 -21 l22 -11 -22 21 c-23 22 -39 28 -28
11z"/>
<path d="M9241 7433 c8 -9 14 -29 14 -44 0 -16 3 -29 8 -29 4 0 12 0 17 0 6 0
10 5 10 10 0 6 -6 9 -12 8 -7 -2 -13 6 -14 17 0 27 -14 55 -26 55 -6 0 -4 -7
3 -17z"/>
<path d="M7395 7420 c-10 -11 -15 -20 -11 -20 11 0 39 30 34 36 -3 2 -13 -5
-23 -16z"/>
<path d="M8400 7428 c0 -9 7 -19 16 -22 15 -6 15 -4 3 11 -7 10 -15 20 -16 22
-2 2 -3 -3 -3 -11z"/>
<path d="M9205 7420 c3 -5 11 -10 16 -10 6 0 7 5 4 10 -3 6 -11 10 -16 10 -6
0 -7 -4 -4 -10z"/>
<path d="M3771 7389 c-1 -8 -3 -27 -5 -44 -1 -16 -7 -29 -12 -27 -5 2 -8 11
-6 20 2 12 -3 10 -17 -8 -13 -17 -16 -28 -10 -36 6 -8 6 -14 1 -18 -14 -8 -35
21 -26 36 5 10 4 10 -6 1 -10 -9 -10 -16 -2 -25 18 -22 18 -25 -2 -47 -10 -11
-24 -17 -30 -14 -22 14 -42 9 -43 -10 -2 -18 -1 -18 16 -3 11 10 21 12 27 6 6
-6 41 23 99 82 50 51 86 89 81 85 -5 -4 -16 -1 -25 6 -14 10 -14 10 -4 -4 7
-9 10 -19 6 -23 -4 -4 -15 3 -23 15 -11 14 -17 17 -19 8z m23 -28 c3 -5 -1
-14 -8 -20 -12 -10 -14 -9 -11 6 2 10 4 19 4 21 2 5 10 2 15 -7z m-50 -62 c-3
-5 -10 -7 -15 -3 -5 3 -7 10 -3 15 3 5 10 7 15 3 5 -3 7 -10 3 -15z"/>
<path d="M4622 7393 c-10 -4 -10 -8 0 -20 11 -14 10 -15 -12 -8 -24 7 -24 6
-8 -11 10 -10 20 -15 24 -12 4 5 15 60 10 57 0 0 -7 -3 -14 -6z"/>
<path d="M9330 7396 c0 -2 8 -10 18 -17 15 -13 16 -12 3 4 -13 16 -21 21 -21
13z"/>
<path d="M7304 7369 c-19 -22 -19 -22 4 -8 12 8 22 17 22 21 0 12 -6 9 -26
-13z"/>
<path d="M7408 7381 c1 -2 -5 -12 -14 -22 -14 -16 -14 -18 4 -28 30 -16 48 10
25 36 -10 10 -17 17 -15 14z m16 -43 c-3 -4 -11 -5 -20 -1 -11 4 -12 8 -3 20
10 11 14 11 20 1 4 -6 6 -15 3 -20z"/>
<path d="M9175 7370 c10 -11 20 -20 22 -20 2 0 -2 9 -9 20 -7 11 -17 20 -22
20 -5 0 -1 -9 9 -20z"/>
<path d="M9225 7380 c-17 -28 -12 -51 16 -70 16 -12 29 -18 29 -13 1 4 10 -9
21 -29 11 -21 21 -38 23 -38 7 0 1 24 -8 39 -6 9 -5 12 1 8 6 -4 13 0 17 8 3
8 0 17 -6 21 -6 4 -8 3 -5 -3 4 -6 0 -14 -9 -17 -12 -5 -15 -2 -10 9 3 9 2 13
-3 10 -6 -3 -14 3 -20 12 -6 11 -11 13 -11 5 0 -7 -5 -10 -10 -7 -6 4 -8 11
-4 16 3 5 0 16 -6 24 -6 8 -9 19 -5 25 3 5 4 10 1 10 -3 0 -8 -4 -11 -10z m15
-41 c0 -5 -4 -9 -8 -9 -5 0 -9 7 -9 15 0 8 4 12 9 9 4 -3 8 -9 8 -15z"/>
<path d="M5705 7339 c4 -29 -2 -36 -21 -21 -5 4 -1 -1 9 -10 10 -10 16 -21 13
-26 -3 -5 4 -18 17 -28 l22 -19 -20 24 c-20 23 -20 23 0 20 15 -3 19 1 17 15
-3 13 1 17 12 13 26 -10 -2 39 -29 51 -22 10 -23 9 -20 -19z m31 -4 c14 -13
14 -16 -1 -21 -13 -5 -13 -9 -3 -23 12 -14 11 -15 -5 -2 -13 10 -15 17 -6 27
8 10 8 14 0 14 -6 0 -11 5 -11 10 0 14 9 12 26 -5z"/>
<path d="M7325 7350 c-3 -5 -1 -10 4 -10 6 0 11 5 11 10 0 6 -2 10 -4 10 -3 0
-8 -4 -11 -10z"/>
<path d="M8542 7344 c19 -10 26 -20 22 -32 -5 -14 -4 -15 5 -2 8 12 6 19 -10
33 -12 9 -26 17 -33 17 -6 -1 1 -7 16 -16z"/>
<path d="M9292 7336 c7 -8 15 -12 17 -11 5 6 -10 25 -20 25 -5 0 -4 -6 3 -14z"/>
<path d="M4552 7328 c-7 -7 -12 -17 -12 -23 0 -7 -11 -18 -25 -25 -14 -7 -25
-17 -25 -22 0 -5 14 0 30 12 17 12 30 27 30 35 0 7 6 15 13 18 6 2 9 7 6 10
-3 4 -11 1 -17 -5z"/>
<path d="M7349 7323 c-13 -16 -12 -17 4 -4 9 7 17 15 17 17 0 8 -8 3 -21 -13z"/>
<path d="M9345 7307 c4 -19 1 -29 -10 -33 -11 -4 -12 -11 -5 -24 5 -9 7 -20 3
-23 -3 -4 2 -9 11 -13 10 -4 22 -2 28 4 8 8 5 9 -9 6 -16 -5 -20 -1 -19 21 1
14 8 30 16 36 11 6 12 11 4 17 -6 4 -14 14 -18 22 -3 8 -4 3 -1 -13z"/>
<path d="M2119 7273 c-1 -27 -1 -54 0 -62 2 -7 -2 -10 -8 -7 -17 11 -21 -11
-4 -25 10 -8 14 -9 10 -2 -4 6 -3 14 1 17 10 6 16 126 7 126 -3 0 -6 -21 -6
-47z"/>
<path d="M9410 7316 c0 -2 8 -10 18 -17 15 -13 16 -12 3 4 -13 16 -21 21 -21
13z"/>
<path d="M7224 7289 c-19 -22 -19 -22 4 -8 12 8 22 17 22 21 0 12 -6 9 -26
-13z"/>
<path d="M7328 7301 c1 -2 -5 -12 -14 -22 -14 -16 -14 -18 4 -28 30 -16 48 10
25 36 -10 10 -17 17 -15 14z m16 -43 c-3 -4 -11 -5 -20 -1 -11 4 -12 8 -3 20
10 11 14 11 20 1 4 -6 6 -15 3 -20z"/>
<path d="M8595 7280 c16 -18 16 -20 2 -20 -10 0 -17 5 -17 10 0 6 -5 10 -11
10 -8 0 -8 -5 1 -15 14 -17 36 -20 45 -5 8 12 -12 40 -28 40 -5 0 -2 -9 8 -20z"/>
<path d="M5784 7267 c1 -17 7 -21 24 -20 15 2 21 -1 16 -9 -4 -7 -3 -8 4 -4
16 10 5 32 -22 44 -20 9 -23 8 -22 -11z m26 -7 c0 -5 -4 -10 -10 -10 -5 0 -10
5 -10 10 0 6 5 10 10 10 6 0 10 -4 10 -10z"/>
<path d="M8650 7269 c0 -11 4 -18 10 -14 5 3 7 12 3 20 -7 21 -13 19 -13 -6z"/>
<path d="M7245 7270 c-3 -5 -1 -10 4 -10 6 0 11 5 11 10 0 6 -2 10 -4 10 -3 0
-8 -4 -11 -10z"/>
<path d="M9366 7262 c6 -4 15 -16 21 -26 9 -16 7 -23 -11 -37 -19 -17 -19 -18
-3 -19 12 0 16 -4 11 -12 -4 -7 -4 -10 1 -6 4 4 14 0 22 -10 8 -9 12 -11 8 -4
-3 7 -9 24 -11 39 -4 23 -3 25 11 13 10 -8 15 -9 15 -1 0 6 -4 11 -10 11 -5 0
-16 14 -25 30 -9 17 -21 30 -28 30 -8 0 -9 -3 -1 -8z"/>
<path d="M7269 7243 c-13 -16 -12 -17 4 -4 9 7 17 15 17 17 0 8 -8 3 -21 -13z"/>
<path d="M2020 6422 c0 -458 1 -832 2 -832 2 0 124 121 272 269 l269 269 -94
-28 c-52 -15 -156 -49 -231 -74 -76 -25 -140 -46 -143 -46 -3 0 -5 271 -4 601
l1 601 -36 36 -36 36 0 -832z"/>
<path d="M5762 7234 c14 -16 15 -23 6 -32 -7 -7 -9 -12 -6 -12 3 0 11 6 17 13
8 11 6 18 -12 33 -22 19 -22 19 -5 -2z"/>
<path d="M8690 7230 c6 -11 15 -20 20 -20 6 0 2 9 -7 20 -10 11 -19 20 -21 20
-1 0 2 -9 8 -20z"/>
<path d="M10942 7207 l-33 -34 1 -596 c0 -328 -2 -597 -5 -597 -2 0 -88 27
-190 61 -103 33 -188 59 -190 57 -2 -2 99 -107 225 -233 l230 -230 0 803 c0
441 -1 802 -3 802 -2 0 -18 -15 -35 -33z"/>
<path d="M5809 7218 c7 -10 10 -18 5 -18 -5 0 -20 -10 -34 -21 -28 -22 0 -11
33 13 18 14 18 14 0 29 -16 13 -17 13 -4 -3z"/>
<path d="M7248 7221 c1 -2 -5 -12 -14 -22 -14 -16 -14 -18 4 -28 30 -16 48 10
25 36 -10 10 -17 17 -15 14z m16 -43 c-3 -4 -11 -5 -20 -1 -11 4 -12 8 -3 20
10 11 14 11 20 1 4 -6 6 -15 3 -20z"/>
<path d="M4435 7200 c3 -5 8 -10 11 -10 2 0 4 5 4 10 0 6 -5 10 -11 10 -5 0
-7 -4 -4 -10z"/>
<path d="M3635 7190 c-4 -6 -10 -8 -15 -5 -5 3 -11 1 -14 -4 -12 -19 12 -20
29 -1 10 11 15 20 12 20 -3 0 -9 -5 -12 -10z"/>
<path d="M7165 7190 c-3 -5 -1 -10 4 -10 6 0 11 5 11 10 0 6 -2 10 -4 10 -3 0
-8 -4 -11 -10z"/>
<path d="M2136 7173 c-6 -14 -5 -15 5 -6 7 7 10 15 7 18 -3 3 -9 -2 -12 -12z"/>
<path d="M5860 7181 c0 -10 19 -25 25 -20 1 2 -3 10 -11 17 -8 7 -14 8 -14 3z"/>
<path d="M5895 7180 c3 -5 11 -10 16 -10 6 0 7 5 4 10 -3 6 -11 10 -16 10 -6
0 -7 -4 -4 -10z"/>
<path d="M8647 7176 c-4 -10 -1 -13 9 -9 7 3 14 9 14 14 0 14 -17 10 -23 -5z"/>
<path d="M9440 7186 c0 -2 7 -7 16 -10 8 -3 12 -2 9 4 -6 10 -25 14 -25 6z"/>
<path d="M5814 7168 c-4 -7 -3 -10 1 -5 5 4 17 0 27 -9 15 -14 16 -20 5 -32
-9 -12 -6 -11 15 2 17 11 28 13 33 7 3 -6 3 -11 -2 -11 -4 0 -19 -10 -33 -21
l-25 -21 25 14 c14 8 31 18 38 22 10 6 10 11 1 22 -6 7 -16 11 -21 8 -5 -3
-20 4 -33 16 -18 17 -25 19 -31 8z"/>
<path d="M7189 7163 c-13 -16 -12 -17 4 -4 9 7 17 15 17 17 0 8 -8 3 -21 -13z"/>
<path d="M8766 7155 c6 -15 43 -40 49 -33 1 2 -11 13 -26 26 -21 17 -27 19
-23 7z"/>
<path d="M3544 7138 l-19 -23 23 19 c21 18 27 26 19 26 -2 0 -12 -10 -23 -22z"/>
<path d="M2150 7146 c0 -2 8 -10 18 -17 15 -13 16 -12 3 4 -13 16 -21 21 -21
13z"/>
<path d="M7168 7141 c1 -2 -5 -12 -14 -22 -14 -16 -14 -18 4 -28 30 -16 48 10
25 36 -10 10 -17 17 -15 14z m16 -43 c-3 -4 -11 -5 -20 -1 -11 4 -12 8 -3 20
10 11 14 11 20 1 4 -6 6 -15 3 -20z"/>
<path d="M9436 7138 c3 -5 10 -6 15 -3 13 9 11 12 -6 12 -8 0 -12 -4 -9 -9z"/>
<path d="M9486 7138 c3 -5 10 -6 15 -3 13 9 11 12 -6 12 -8 0 -12 -4 -9 -9z"/>
<path d="M10811 7128 c12 -23 20 -24 12 -1 -5 13 -2 15 11 10 9 -4 15 -3 11 2
-3 6 -14 9 -24 8 -16 -1 -17 -5 -10 -19z"/>
<path d="M2104 7126 c1 -8 5 -18 8 -22 4 -3 5 1 4 10 -1 8 -5 18 -8 22 -4 3
-5 -1 -4 -10z"/>
<path d="M2206 7130 c6 -8 10 -23 9 -32 -2 -9 9 -27 23 -40 26 -22 26 -22 8 0
-11 12 -16 22 -11 22 4 0 3 6 -4 13 -7 9 -7 17 -1 25 6 7 7 10 4 7 -4 -3 -14
1 -23 8 -14 10 -14 10 -5 -3z"/>
<path d="M10854 7108 c-16 -18 -22 -27 -13 -20 9 6 18 11 20 9 2 -1 3 0 1 2
-1 2 5 13 15 23 9 10 14 18 11 18 -2 0 -17 -14 -34 -32z"/>
<path d="M3559 7113 c-13 -16 -12 -17 4 -4 9 7 17 15 17 17 0 8 -8 3 -21 -13z"/>
<path d="M9466 7115 c7 -18 6 -19 -9 -6 -10 8 -20 12 -22 9 -3 -2 8 -14 25
-26 l29 -22 -4 22 c-3 12 -9 26 -15 32 -8 8 -9 5 -4 -9z"/>
<path d="M2135 7109 c-5 -7 -4 -10 2 -6 12 7 36 -16 27 -25 -3 -3 -1 -9 5 -12
21 -14 19 12 -3 33 -18 17 -26 19 -31 10z"/>
<path d="M5975 7100 c3 -5 11 -10 16 -10 6 0 7 5 4 10 -3 6 -11 10 -16 10 -6
0 -7 -4 -4 -10z"/>
<path d="M9520 7106 c0 -2 7 -7 16 -10 8 -3 12 -2 9 4 -6 10 -25 14 -25 6z"/>
<path d="M5894 7088 c-4 -6 -3 -8 3 -5 15 10 36 -20 29 -39 -5 -14 -4 -15 9
-4 14 12 13 16 -6 37 -26 27 -26 27 -35 11z"/>
<path d="M7109 7083 c-13 -16 -12 -17 4 -4 9 7 17 15 17 17 0 8 -8 3 -21 -13z"/>
<path d="M9565 7081 c-3 -5 0 -13 6 -17 7 -4 9 -3 5 4 -3 5 0 13 6 15 9 4 10
6 1 6 -6 1 -14 -3 -18 -8z"/>
<path d="M3490 7069 c0 -5 -4 -7 -10 -4 -5 3 -10 2 -10 -4 0 -5 9 -9 19 -8 11
0 17 6 14 14 -6 16 -13 17 -13 2z"/>
<path d="M4300 7070 c-9 -6 -10 -10 -3 -10 6 0 15 5 18 10 8 12 4 12 -15 0z"/>
<path d="M5969 7057 c6 -8 7 -18 3 -22 -4 -5 -1 -5 6 -1 10 6 10 11 1 22 -6 8
-14 14 -16 14 -3 0 0 -6 6 -13z"/>
<path d="M8862 7054 c10 -10 20 -15 24 -12 3 4 -5 12 -18 18 -22 12 -22 12 -6
-6z"/>
<path d="M10731 7048 c12 -23 20 -24 12 -1 -5 13 -2 15 11 10 9 -4 15 -3 11 2
-3 6 -14 9 -24 8 -16 -1 -17 -5 -10 -19z"/>
<path d="M2289 7048 c7 -10 10 -18 6 -18 -4 0 -2 -6 4 -13 6 -8 9 -16 6 -19
-3 -3 5 -13 17 -24 l23 -19 -19 23 c-11 12 -16 22 -11 22 4 0 3 6 -4 13 -7 9
-7 17 -1 25 6 7 7 10 4 7 -4 -3 -14 1 -23 8 -14 11 -14 10 -2 -5z"/>
<path d="M3447 7047 c-3 -8 1 -14 8 -14 7 0 11 6 8 14 -3 7 -6 13 -8 13 -2 0
-5 -6 -8 -13z"/>
<path d="M7075 7038 l-20 -23 23 19 c22 19 32 10 11 -11 -7 -7 -7 -13 -1 -17
18 -11 33 19 19 38 -12 16 -14 16 -32 -6z"/>
<path d="M9506 7049 c2 -4 14 -6 25 -4 13 3 19 0 16 -8 -3 -7 -11 -11 -18 -9
-8 1 -5 -5 6 -15 11 -10 30 -28 42 -40 17 -17 22 -19 27 -7 3 8 2 13 -3 10 -9
-6 -38 22 -34 33 1 3 -6 4 -15 3 -14 -3 -14 -1 -3 12 8 9 11 20 7 23 -10 10
-56 12 -50 2z"/>
<path d="M10774 7028 c-16 -18 -22 -27 -13 -20 9 6 18 11 20 9 2 -1 3 0 1 2
-1 2 5 13 15 23 9 10 14 18 11 18 -2 0 -17 -14 -34 -32z"/>
<path d="M2164 7038 c-4 -7 -4 -10 1 -6 4 4 15 2 24 -5 14 -11 14 -10 2 6 -16
20 -18 21 -27 5z"/>
<path d="M2233 7024 c9 -11 14 -23 11 -26 -3 -3 -1 -9 5 -12 23 -15 18 13 -7
35 -20 18 -22 19 -9 3z"/>
<path d="M5934 7014 c-18 -14 -18 -15 4 -4 12 6 22 13 22 15 0 8 -5 6 -26 -11z"/>
<path d="M6055 7020 c3 -5 8 -10 11 -10 2 0 4 5 4 10 0 6 -5 10 -11 10 -5 0
-7 -4 -4 -10z"/>
<path d="M9600 7026 c0 -2 7 -7 16 -10 8 -3 12 -2 9 4 -6 10 -25 14 -25 6z"/>
<path d="M5995 7000 c10 -11 20 -20 23 -20 3 0 -3 9 -13 20 -10 11 -20 20 -23
20 -3 0 3 -9 13 -20z"/>
<path d="M7029 7003 c-13 -16 -12 -17 4 -4 9 7 17 15 17 17 0 8 -8 3 -21 -13z"/>
<path d="M9651 6996 c-7 -8 -8 -17 -3 -20 6 -3 15 1 21 8 7 8 8 17 3 20 -6 3
-15 -1 -21 -8z"/>
<path d="M3384 6978 l-19 -23 23 19 c21 18 27 26 19 26 -2 0 -12 -10 -23 -22z"/>
<path d="M10651 6968 c12 -23 20 -24 12 -1 -5 13 -2 15 11 10 9 -4 15 -3 11 2
-3 6 -14 9 -24 8 -16 -1 -17 -5 -10 -19z"/>
<path d="M2360 6977 c0 -2 6 -10 14 -16 11 -9 16 -9 22 1 4 7 4 10 -1 6 -4 -4
-14 -3 -22 3 -7 6 -13 9 -13 6z"/>
<path d="M7015 6972 c4 -7 2 -19 -5 -27 -6 -8 -7 -16 -2 -19 6 -3 15 0 21 7 8
10 7 19 -5 33 -8 10 -13 13 -9 6z"/>
<path d="M8964 6961 c20 -22 26 -25 26 -13 0 4 -10 13 -22 21 -23 14 -23 14
-4 -8z"/>
<path d="M2244 6958 c-4 -7 -4 -10 1 -6 4 4 15 2 24 -5 14 -11 14 -10 2 6 -16
20 -18 21 -27 5z"/>
<path d="M9626 6948 c1 -13 3 -26 3 -30 1 -5 5 -8 10 -8 11 0 6 39 -7 52 -5 5
-8 -1 -6 -14z"/>
<path d="M10689 6943 c-13 -15 -17 -22 -8 -15 9 6 19 10 22 7 4 -3 5 -2 2 2
-3 3 0 12 6 20 21 25 3 13 -22 -14z"/>
<path d="M2314 6943 c11 -13 15 -23 11 -23 -5 0 -4 -5 3 -12 9 -9 9 -15 0 -27
-7 -9 -8 -13 -4 -9 5 4 16 2 25 -5 14 -11 14 -10 2 6 -7 9 -10 17 -6 17 4 0 2
6 -4 13 -6 8 -9 16 -6 19 3 3 -5 13 -17 24 l-23 19 19 -22z"/>
<path d="M6014 6934 c-18 -14 -18 -15 4 -4 12 6 22 13 22 15 0 8 -5 6 -26 -11z"/>
<path d="M2375 6930 c-3 -6 -1 -9 6 -8 7 2 13 -3 14 -9 0 -7 4 -13 8 -14 17
-2 17 8 -2 25 -13 12 -21 14 -26 6z"/>
<path d="M6075 6920 c10 -11 20 -20 23 -20 3 0 -3 9 -13 20 -10 11 -20 20 -23
20 -3 0 3 -9 13 -20z"/>
<path d="M6949 6923 c-13 -16 -12 -17 4 -4 9 7 17 15 17 17 0 8 -8 3 -21 -13z"/>
<path d="M3359 6913 c-13 -16 -12 -17 4 -4 9 7 17 15 17 17 0 8 -8 3 -21 -13z"/>
<path d="M9015 6910 c10 -11 20 -20 23 -20 3 0 -3 9 -13 20 -10 11 -20 20 -23
20 -3 0 3 -9 13 -20z"/>
<path d="M3286 6912 c-3 -5 1 -9 9 -9 8 0 12 4 9 9 -3 4 -7 8 -9 8 -2 0 -6 -4
-9 -8z"/>
<path d="M10565 6910 c-7 -11 -8 -11 23 -14 27 -3 28 0 3 14 -13 7 -22 7 -26
0z"/>
<path d="M9705 6900 c-4 -6 -11 -7 -17 -4 -7 4 -8 2 -4 -5 6 -9 11 -9 22 0 14
11 18 19 10 19 -3 0 -8 -5 -11 -10z"/>
<path d="M2430 6881 c-7 -14 -7 -22 0 -26 6 -4 10 -3 9 2 -1 4 -1 14 0 22 1
11 4 11 19 0 15 -13 16 -12 3 4 -17 21 -18 21 -31 -2z"/>
<path d="M6915 6878 l-20 -23 23 19 c22 19 32 10 11 -11 -7 -7 -7 -13 -1 -17
18 -11 33 19 19 38 -12 16 -14 16 -32 -6z"/>
<path d="M10622 6877 c-17 -18 -19 -24 -7 -24 8 0 13 3 10 5 -3 3 2 14 12 24
24 27 10 22 -15 -5z"/>
<path d="M2380 6876 c0 -2 8 -10 18 -17 15 -13 16 -12 3 4 -13 16 -21 21 -21
13z"/>
<path d="M3288 6868 c9 -9 9 -15 -1 -27 -11 -14 -10 -14 6 -2 13 10 15 17 6
27 -6 8 -14 14 -17 14 -3 0 -1 -5 6 -12z"/>
<path d="M9696 6861 c-3 -5 2 -15 12 -22 15 -12 16 -12 5 2 -7 9 -10 19 -6 22
3 4 4 7 0 7 -3 0 -8 -4 -11 -9z"/>
<path d="M6155 6840 c10 -11 20 -20 23 -20 3 0 -3 9 -13 20 -10 11 -20 20 -23
20 -3 0 3 -9 13 -20z"/>
<path d="M6869 6843 c-13 -16 -12 -17 4 -4 9 7 17 15 17 17 0 8 -8 3 -21 -13z"/>
<path d="M2476 6832 c-3 -5 1 -9 9 -9 8 0 12 4 9 9 -3 4 -7 8 -9 8 -2 0 -6 -4
-9 -8z"/>
<path d="M9735 6831 c-3 -5 -2 -12 3 -15 5 -3 9 1 9 9 0 17 -3 19 -12 6z"/>
<path d="M9766 6822 c-3 -5 1 -9 9 -9 8 0 12 4 9 9 -3 4 -7 8 -9 8 -2 0 -6 -4
-9 -8z"/>
<path d="M2520 6816 c0 -2 8 -10 18 -17 15 -13 16 -12 3 4 -13 16 -21 21 -21
13z"/>
<path d="M2410 6806 c0 -2 8 -10 18 -17 15 -13 16 -12 3 4 -13 16 -21 21 -21
13z"/>
<path d="M10537 6792 c-15 -16 -15 -19 -2 -19 8 0 13 3 10 5 -3 3 0 11 6 19
17 20 5 16 -14 -5z"/>
<path d="M2466 6781 c-4 -5 -2 -12 3 -15 5 -4 12 -2 15 3 4 5 2 12 -3 15 -5 4
-12 2 -15 -3z"/>
<path d="M6220 6776 c0 -2 8 -10 18 -17 15 -13 16 -12 3 4 -13 16 -21 21 -21
13z"/>
<path d="M6789 6763 c-13 -16 -12 -17 4 -4 9 7 17 15 17 17 0 8 -8 3 -21 -13z"/>
<path d="M2556 6752 c-3 -5 1 -9 9 -9 8 0 12 4 9 9 -3 4 -7 8 -9 8 -2 0 -6 -4
-9 -8z"/>
<path d="M2600 6736 c0 -2 8 -10 18 -17 15 -13 16 -12 3 4 -13 16 -21 21 -21
13z"/>
<path d="M2490 6726 c0 -2 8 -10 18 -17 15 -13 16 -12 3 4 -13 16 -21 21 -21
13z"/>
<path d="M10451 6707 c-8 -10 -7 -14 2 -14 8 0 14 6 14 14 0 7 -1 13 -2 13 -2
0 -8 -6 -14 -13z"/>
<path d="M2546 6701 c-4 -5 -2 -12 3 -15 5 -4 12 -2 15 3 4 5 2 12 -3 15 -5 4
-12 2 -15 -3z"/>
<path d="M9866 6698 c3 -5 10 -6 15 -3 13 9 11 12 -6 12 -8 0 -12 -4 -9 -9z"/>
<path d="M5885 6659 c-88 -5 -252 -14 -365 -20 -113 -7 -233 -14 -267 -15 -34
-1 -65 -4 -70 -7 -4 -3 -46 -8 -93 -11 -47 -4 -141 -13 -210 -21 -69 -8 -170
-19 -225 -25 -55 -6 -122 -15 -150 -20 -27 -5 -71 -11 -97 -14 l-47 -5 1 32
c0 18 6 38 12 46 8 11 8 13 -1 7 -8 -4 -13 -2 -13 5 0 7 -18 -6 -40 -29 l-40
-41 2 -1413 3 -1413 33 1 c17 0 295 1 616 2 665 2 627 -4 554 86 -39 47 -39
49 -7 19 19 -18 38 -33 42 -33 4 0 7 388 7 862 l0 862 -72 -69 -73 -70 73 75
72 75 0 328 0 327 328 0 327 0 163 163 162 162 -83 83 -82 82 -150 -1 c-83 -1
-222 -6 -310 -10z m-1135 -1579 c36 -18 41 -19 84 -4 80 28 95 20 263 -146 84
-82 157 -159 163 -169 5 -11 10 -37 10 -57 0 -36 -13 -51 -277 -318 -153 -155
-289 -290 -303 -301 -16 -13 -40 -20 -67 -20 -41 0 -47 5 -153 110 -98 98
-110 113 -110 144 l0 35 113 -112 c61 -62 119 -117 127 -122 26 -16 45 -11 85
23 l38 33 1 82 1 82 133 132 132 133 81 2 c88 2 103 9 139 69 14 21 18 38 13
52 -10 27 -301 322 -317 322 -7 0 -33 -6 -57 -13 -24 -7 -51 -12 -59 -11 -8 0
-23 2 -32 2 -9 1 -24 9 -32 18 -9 8 -32 18 -51 21 -35 6 -39 2 -175 -133 -131
-129 -140 -136 -140 -108 0 24 20 49 118 145 64 64 126 122 137 128 26 15 86
6 135 -19z m33 -280 c115 -72 114 -223 -1 -304 -142 -100 -331 54 -268 218 42
109 168 150 269 86z"/>
<path d="M6435 6590 l79 -80 26 22 25 22 -22 -24 -23 -24 58 -61 57 -60 -60
57 -60 58 -160 -160 -160 -160 320 0 320 0 -100 103 -100 102 105 -102 105
-103 315 0 315 0 -3 -311 -3 -311 23 -26 c13 -15 16 -21 7 -14 -9 6 -19 9 -22
5 -10 -9 -8 -1783 1 -1783 5 0 14 6 22 13 8 6 6 2 -4 -11 -11 -12 -17 -23 -15
-25 2 -1 280 -1 617 1 l612 3 0 568 c0 598 1 581 -39 581 -11 0 -51 -36 -51
-46 0 -4 16 -24 35 -44 l36 -36 -21 -19 c-20 -18 -22 -18 -120 81 -55 54 -99
103 -100 108 0 19 125 126 148 126 33 0 92 -61 92 -94 0 -14 5 -26 10 -26 6 0
10 25 10 55 0 49 -4 59 -30 85 -16 16 -30 33 -30 38 0 9 38 62 51 72 4 3 8
304 10 669 l4 665 -30 7 c-91 23 -661 88 -998 114 -48 4 -85 10 -83 13 2 4
-15 6 -37 4 -23 -2 -191 4 -373 12 -182 9 -371 16 -420 16 l-88 0 -61 -57 -60
-58 55 58 54 57 -159 0 -160 0 80 -80z m1121 -1122 l29 -33 -32 29 c-31 28
-38 36 -30 36 2 0 16 -15 33 -32z m909 -643 c14 -14 25 -35 25 -45 0 -13 7
-20 19 -20 29 0 81 -57 81 -89 0 -37 -120 -157 -138 -139 -19 19 -15 29 33 74
48 44 54 63 29 88 -23 24 -40 20 -82 -19 -30 -26 -41 -32 -50 -23 -18 18 -14
31 18 58 32 27 39 60 15 80 -12 10 -24 2 -70 -41 -51 -48 -57 -51 -71 -37 -15
14 -13 19 12 48 42 47 103 90 130 90 13 0 35 -11 49 -25z m-179 -186 c36 -34
38 -54 8 -119 -22 -49 -24 -63 -14 -75 20 -24 35 -18 79 31 35 37 45 43 57 33
8 -6 14 -14 14 -18 0 -11 -131 -142 -139 -139 -20 8 -81 88 -81 106 0 12 9 36
19 54 29 49 31 92 5 102 -9 4 -32 -10 -63 -39 -46 -43 -49 -44 -64 -27 -16 17
-14 21 26 59 71 69 106 76 153 32z m-129 -221 c90 -91 100 -105 89 -120 -7
-10 -16 -18 -19 -18 -4 0 -45 38 -92 85 -48 47 -91 83 -96 79 -6 -3 -16 2 -24
12 -12 17 -11 22 7 42 12 12 24 22 27 22 4 0 52 -46 108 -102z m-182 -78 c23
0 44 -14 93 -61 34 -34 62 -70 62 -79 0 -22 -225 -250 -246 -250 -9 0 -44 29
-80 64 -55 55 -65 69 -64 98 1 18 -2 45 -5 60 -6 23 3 36 66 103 70 73 75 77
109 71 19 -3 49 -6 65 -6z"/>
<path d="M7816 4261 c-58 -59 -67 -72 -60 -92 4 -13 7 -38 6 -54 -2 -25 9 -41
58 -90 68 -68 90 -68 101 -1 9 53 91 136 134 136 34 0 55 15 55 40 0 9 -24 39
-52 67 -49 47 -57 51 -114 56 l-60 6 -68 -68z m136 -38 c24 -28 29 -53 16 -76
-15 -29 -27 -37 -62 -37 -40 0 -66 26 -66 66 0 56 77 87 112 47z"/>
<path d="M2680 6656 c0 -2 8 -10 18 -17 15 -13 16 -12 3 4 -13 16 -21 21 -21
13z"/>
<path d="M2570 6646 c0 -2 8 -10 18 -17 15 -13 16 -12 3 4 -13 16 -21 21 -21
13z"/>
<path d="M10369 6623 c-13 -16 -12 -17 4 -4 9 7 17 15 17 17 0 8 -8 3 -21 -13z"/>
<path d="M9935 6621 c-3 -5 -2 -12 3 -15 5 -3 9 1 9 9 0 17 -3 19 -12 6z"/>
<path d="M10289 6543 c-13 -16 -12 -17 4 -4 9 7 17 15 17 17 0 8 -8 3 -21 -13z"/>
<path d="M9033 6374 l97 -96 0 -436 0 -436 33 30 32 29 -32 -35 -33 -36 0
-1049 0 -1050 -1036 0 c-938 0 -1037 -2 -1047 -16 -7 -9 -15 -17 -19 -17 -5
-1 -8 -4 -8 -7 0 -3 0 -10 0 -17 0 -9 3 -9 12 0 7 7 17 12 22 12 6 0 0 -7 -12
-16 -20 -13 -33 -42 -14 -31 4 3 8 -6 8 -19 1 -13 -2 -24 -8 -24 -5 0 -6 5 -2
12 4 6 3 8 -4 4 -5 -3 -13 0 -16 6 -5 11 -7 11 -12 0 -3 -6 -10 -10 -15 -6
-18 11 -8 22 17 19 23 -2 24 -1 10 13 -12 13 -18 13 -31 2 -9 -7 -14 -19 -11
-27 3 -7 1 -13 -4 -13 -6 0 -10 -8 -10 -17 1 -16 2 -16 13 -3 15 19 36 23 51
11 14 -11 66 -3 66 11 0 6 13 8 33 4 23 -4 28 -3 17 4 -12 8 -11 10 8 10 15 0
21 -4 16 -12 -5 -8 -2 -9 12 -4 10 5 25 9 32 9 17 1 2 14 -23 20 -11 2 -4 3
15 1 19 -2 67 -4 105 -4 49 0 65 -3 55 -10 -10 -7 16 -10 83 -10 63 0 96 4 92
10 -4 7 51 10 157 10 109 0 158 -4 148 -10 -10 -7 16 -10 83 -10 63 0 96 4 92
10 -4 7 104 10 317 10 212 0 318 -4 308 -10 -10 -7 16 -10 83 -10 63 0 96 4
92 10 -4 7 60 10 187 9 111 -1 178 -5 158 -9 l-35 -7 42 -2 c23 0 43 -4 46 -8
2 -5 3 -3 1 2 -1 6 4 24 11 40 l13 30 -5 -37 c-7 -47 3 -49 17 -5 l10 32 -4
-37 c-6 -49 7 -49 21 0 l11 37 -5 -37 c-3 -25 -1 -38 6 -38 6 0 11 5 11 10 0
14 477 14 485 0 4 -6 11 -8 16 -5 5 4 9 1 9 -4 0 -15 23 -14 56 3 41 22 629
23 637 2 3 -8 3 -17 -1 -21 -4 -4 -7 -11 -7 -15 0 -5 -9 -16 -20 -24 -11 -9
-16 -16 -12 -16 14 0 117 102 112 111 -3 4 0 11 6 15 8 4 7 9 -2 16 -11 8 -10
9 4 4 11 -4 17 0 18 12 0 16 1 16 7 0 6 -15 10 -14 35 7 28 25 37 42 15 29
-10 -6 -10 -5 -1 8 7 8 9 19 5 23 -4 5 -1 5 6 1 7 -4 10 -12 7 -17 -12 -19 4
-8 39 27 37 37 46 51 24 38 -9 -5 -9 -2 1 9 15 18 26 23 16 7 -15 -24 10 -3
119 103 l116 112 0 1015 0 1015 -242 242 -243 243 -95 29 c-52 16 -131 39
-175 51 -44 12 -82 24 -84 26 -2 2 18 27 45 56 28 30 43 53 36 56 -7 2 -9 9
-5 15 3 7 2 9 -2 4 -5 -4 -21 5 -37 20 l-28 27 -145 -145 c-80 -79 -151 -146
-158 -148 -6 -2 -156 -146 -332 -320 l-320 -316 320 322 319 322 -79 83 c-153
159 -145 154 -291 184 -175 36 -206 42 -304 58 -47 8 -109 19 -139 25 -29 6
-61 11 -70 11 -9 0 25 -41 82 -96z m609 -2999 c3 3 11 -1 18 -10 7 -8 9 -15 4
-15 -4 0 3 -11 16 -25 12 -13 26 -22 30 -20 4 3 15 -4 25 -15 10 -11 15 -20
11 -20 -4 0 4 -11 16 -24 14 -14 27 -20 34 -15 7 6 18 1 29 -11 10 -11 15 -20
10 -20 -4 0 -2 -6 4 -14 16 -19 -3 -30 -29 -16 -11 6 -20 8 -20 4 0 -3 -7 -1
-15 6 -9 8 -12 17 -6 24 5 7 0 19 -15 33 -14 14 -25 19 -29 12 -10 -15 -34 8
-30 29 3 19 -33 64 -45 57 -4 -3 -13 2 -20 10 -7 8 -9 15 -4 15 5 0 -90 100
-211 223 l-220 222 220 -218 c122 -120 223 -215 227 -212z m-2530 -112 c-6 -2
-9 -10 -6 -15 4 -7 2 -8 -5 -4 -13 9 -5 26 12 25 9 0 8 -2 -1 -6z m3412 -48
c-10 -8 -26 -14 -34 -14 -9 0 -4 6 10 14 33 19 49 19 24 0z m26 -10 c0 -6 -5
-12 -38 -50 -9 -12 -13 -16 -9 -9 4 7 6 16 5 21 -2 4 4 16 12 25 15 17 30 23
30 13z"/>
<path d="M9636 3361 c-4 -5 -2 -12 3 -15 5 -4 12 -2 15 3 4 5 2 12 -3 15 -5 4
-12 2 -15 -3z"/>
<path d="M9709 3299 c-6 -31 -6 -40 1 -44 4 -3 13 1 19 9 9 10 8 16 -4 26 -8
7 -15 11 -16 9z m16 -18 c3 -5 2 -12 -3 -15 -5 -3 -9 1 -9 9 0 17 3 19 12 6z"/>
<path d="M9785 3210 c-10 -11 -16 -20 -14 -21 2 0 12 -2 21 -4 25 -5 42 19 25
34 -11 8 -18 6 -32 -9z m23 -6 c-1 -5 -9 -9 -16 -10 -10 -2 -11 1 -1 12 12 14
24 13 17 -2z"/>
<path d="M5950 4562 l0 -1208 49 -48 c34 -33 55 -47 66 -42 9 3 14 2 11 -3 -3
-4 2 -17 10 -27 9 -10 13 -14 10 -9 -2 6 7 11 22 12 24 2 24 1 7 -7 -11 -5
-17 -9 -12 -11 21 -5 33 -4 40 6 5 6 7 4 6 -5 -3 -33 2 -40 30 -40 16 0 31 -6
35 -15 3 -8 2 -15 -2 -15 -4 0 -17 -9 -30 -18 -23 -17 -23 -19 -5 -32 15 -12
16 -12 6 0 -10 11 -8 17 15 32 15 10 27 23 27 30 0 17 617 24 643 8 14 -9 13
-10 -7 -4 -21 5 -22 4 -10 -9 12 -13 16 -12 35 2 12 9 20 19 17 24 -2 4 3 7
12 7 9 0 13 -4 10 -10 -3 -6 -1 -10 5 -10 7 0 9 7 6 16 -4 10 5 27 23 45 16
16 25 31 20 35 -5 3 -9 -1 -9 -8 0 -8 -5 -5 -11 6 -9 15 -7 22 12 40 22 20 22
20 6 0 -25 -30 -21 -41 6 -16 18 17 24 19 24 8 0 -8 -4 -13 -8 -10 -4 2 -10 0
-14 -6 -13 -21 23 -9 37 13 13 19 16 197 21 1250 l6 1227 -555 0 -554 0 0
-1208z m94 -1264 c-5 -8 -1 -9 12 -4 14 5 16 4 7 -5 -13 -13 -37 -3 -28 12 4
5 8 9 11 9 3 0 2 -5 -2 -12z m866 -73 c-14 -17 0 -21 16 -5 7 7 11 6 11 -4 0
-8 -4 -13 -8 -10 -4 2 -15 -6 -23 -18 -14 -19 -16 -20 -22 -4 -4 10 1 25 11
36 21 23 33 27 15 5z"/>
<path d="M1302 5100 c0 -14 2 -19 5 -12 2 6 2 18 0 25 -3 6 -5 1 -5 -13z"/>
<path d="M8550 4955 l-34 -35 24 -25 c30 -32 40 -32 75 5 28 29 29 32 14 58
-21 38 -40 38 -79 -3z"/>
<path d="M1346 4723 c-6 -14 -5 -15 5 -6 7 7 10 15 7 18 -3 3 -9 -2 -12 -12z"/>
<path d="M1300 4700 c0 -5 5 -10 11 -10 5 0 7 5 4 10 -3 6 -8 10 -11 10 -2 0
-4 -4 -4 -10z"/>
<path d="M1262 4675 c0 -16 2 -22 5 -12 2 9 2 23 0 30 -3 6 -5 -1 -5 -18z"/>
<path d="M11834 4631 c2 -36 -2 -63 -13 -82 -20 -36 -24 -36 -42 -1 -13 25
-14 15 -17 -112 l-3 -138 51 -52 50 -51 0 163 c0 90 -4 161 -8 158 -4 -2 -8 7
-9 22 -2 24 -1 25 8 7 7 -15 8 -11 3 15 -4 19 -10 55 -15 80 l-8 45 3 -54z"/>
<path d="M1771 4054 c0 -11 3 -14 6 -6 3 7 2 16 -1 19 -3 4 -6 -2 -5 -13z"/>
<path d="M1797 3934 c3 -27 7 -51 9 -53 8 -9 3 75 -5 88 -5 8 -7 -5 -4 -35z"/>
<path d="M1782 3895 c0 -16 2 -22 5 -12 2 9 2 23 0 30 -3 6 -5 -1 -5 -18z"/>
<path d="M3742 3707 c-56 -57 -99 -107 -95 -112 4 -4 3 -5 -3 -2 -6 3 -67 -51
-137 -122 -105 -105 -125 -129 -114 -141 10 -12 9 -12 -4 -2 -13 10 -26 2 -77
-52 -44 -46 -60 -69 -56 -81 6 -14 3 -16 -17 -11 -13 3 -18 3 -11 0 21 -10 13
-26 -10 -19 -18 6 -20 5 -11 -5 7 -8 19 -10 30 -5 10 5 24 7 31 6 15 -2 15 4
2 30 -7 13 -7 19 0 19 5 0 10 -7 10 -15 0 -13 37 -15 275 -15 151 0 275 -4
275 -8 0 -11 43 -13 50 -2 3 6 32 12 64 15 41 3 55 2 50 -7 -4 -7 -3 -8 5 -4
8 5 9 12 2 19 -12 15 309 11 324 -4 12 -12 142 -12 150 1 4 7 256 9 728 8 397
-1 684 -5 637 -8 l-85 -6 121 -2 c66 -1 124 -5 127 -9 4 -3 19 -8 33 -9 23 -3
24 -1 9 10 -15 11 -16 13 -1 26 14 11 20 10 37 -8 24 -26 48 -30 28 -5 -8 10
5 3 28 -15 31 -24 43 -29 49 -20 4 7 4 10 -1 6 -9 -8 -28 9 -37 33 -4 11 -16
15 -35 13 -24 -3 -38 8 -95 69 -55 60 -67 68 -68 50 0 -13 -6 -23 -12 -23 -7
0 -440 0 -963 -1 -522 0 -985 -4 -1028 -7 -43 -4 -81 -4 -83 0 -3 5 -5 123 -4
263 0 140 -3 255 -7 255 -5 0 -55 -46 -111 -103z m-403 -441 c9 -11 9 -16 0
-22 -8 -4 -9 -3 -5 4 4 7 2 12 -3 12 -6 0 -11 5 -11 10 0 14 5 13 19 -4z m601
-66 c0 -5 -4 -10 -10 -10 -5 0 -10 5 -10 10 0 6 5 10 10 10 6 0 10 -4 10 -10z"/>
<path d="M10858 3462 c-97 -97 -116 -121 -105 -132 10 -12 9 -12 -4 -2 -13 10
-26 2 -77 -52 -44 -46 -60 -69 -56 -81 6 -14 3 -16 -17 -11 -13 3 -18 3 -11 0
21 -10 13 -26 -10 -19 -18 6 -20 5 -11 -5 7 -8 19 -10 30 -5 10 5 24 7 31 6
15 -2 15 4 2 30 -7 13 -7 19 0 19 5 0 10 -7 10 -15 0 -12 20 -15 120 -15 89 0
120 3 120 13 0 9 3 8 9 -2 7 -11 9 -11 14 0 10 26 7 -255 -4 -320 -25 -155
-89 -280 -205 -397 -80 -82 -81 -83 -62 -103 18 -21 18 -21 -3 -2 -21 18 -22
18 -114 -29 -181 -92 -24 -85 -1847 -85 -885 0 -1608 -2 -1608 -4 0 -3 12 -18
27 -33 l27 -28 1230 0 1230 0 36 33 35 32 -30 -33 -30 -33 370 3 c354 4 373 5
440 27 39 13 74 27 79 32 6 5 16 9 24 9 27 0 148 81 220 146 113 103 194 235
234 382 19 68 21 112 25 387 3 171 3 331 1 357 l-3 48 -117 -118z m-159 -196
c9 -11 9 -16 0 -22 -8 -4 -9 -3 -5 4 4 7 2 12 -3 12 -6 0 -11 5 -11 10 0 14 5
13 19 -4z"/>
<path d="M2276 3361 c-4 -5 -2 -12 3 -15 5 -4 12 -2 15 3 4 5 2 12 -3 15 -5 4
-12 2 -15 -3z"/>
<path d="M2349 3299 c-6 -31 -6 -40 1 -44 4 -3 13 1 19 9 9 10 8 16 -4 26 -8
7 -15 11 -16 9z m16 -18 c3 -5 2 -12 -3 -15 -5 -3 -9 1 -9 9 0 17 3 19 12 6z"/>
<path d="M2436 3222 c-3 -5 1 -9 9 -9 8 0 12 4 9 9 -3 4 -7 8 -9 8 -2 0 -6 -4
-9 -8z"/>
<path d="M3220 3215 c-11 -13 -10 -14 4 -9 9 3 16 10 16 15 0 13 -6 11 -20 -6z"/>
<path d="M10580 3215 c-11 -13 -10 -14 4 -9 9 3 16 10 16 15 0 13 -6 11 -20
-6z"/>
<path d="M6050 3190 c0 -5 4 -10 8 -10 5 0 15 -11 22 -24 7 -14 20 -28 28 -31
22 -8 36 9 24 30 -6 12 -11 14 -16 6 -4 -6 -12 -11 -18 -11 -6 0 -9 3 -5 6 3
3 -3 14 -14 25 -21 21 -29 24 -29 9z m80 -50 c0 -5 -4 -10 -10 -10 -5 0 -10 5
-10 10 0 6 5 10 10 10 6 0 10 -4 10 -10z"/>
<path d="M3960 3170 c0 -5 -8 -7 -17 -4 -15 5 -16 4 -3 -5 8 -6 24 -11 35 -11
17 0 17 -2 5 -10 -9 -6 -10 -10 -3 -10 6 0 15 5 18 10 4 6 70 10 166 10 109 0
159 3 159 11 0 8 -52 10 -174 7 -96 -1 -172 0 -169 5 2 4 -1 7 -6 7 -6 0 -11
-4 -11 -10z"/>
<path d="M4480 3160 c0 -7 247 -10 720 -10 473 0 720 3 720 10 0 7 -247 10
-720 10 -473 0 -720 -3 -720 -10z"/>
<path d="M7176 3158 c-23 -13 -20 -23 6 -25 18 -2 20 0 8 7 -10 7 19 10 85 10
70 0 95 3 85 10 -18 12 -161 11 -184 -2z"/>
<path d="M7520 3160 c-10 -6 43 -10 158 -10 113 0 171 3 167 10 -8 13 -305 13
-325 0z"/>
<path d="M8000 3160 c-10 -6 100 -10 320 -10 220 0 330 4 320 10 -9 6 -140 10
-320 10 -180 0 -311 -4 -320 -10z"/>
<path d="M8800 3160 c-10 -6 45 -10 165 -10 120 0 175 4 165 10 -8 5 -82 10
-165 10 -82 0 -157 -5 -165 -10z"/>
<path d="M3045 3149 c-11 -17 -2 -18 19 -3 17 12 17 14 4 14 -9 0 -20 -5 -23
-11z"/>
<path d="M6807 3145 c-3 -7 2 -22 11 -32 9 -11 16 -17 14 -14 -1 2 5 12 14 22
14 16 14 18 -5 28 -25 14 -28 14 -34 -4z m32 -22 c-10 -11 -14 -11 -20 -1 -10
17 -2 28 17 21 11 -4 12 -8 3 -20z"/>
<path d="M6911 3144 c-7 -8 -11 -17 -9 -20 3 -2 13 5 23 16 10 11 14 20 9 20
-5 -1 -15 -8 -23 -16z"/>
<path d="M10405 3149 c-11 -17 -2 -18 19 -3 17 12 17 14 4 14 -9 0 -20 -5 -23
-11z"/>
<path d="M10885 3150 c3 -5 8 -10 11 -10 2 0 4 5 4 10 0 6 -5 10 -11 10 -5 0
-7 -4 -4 -10z"/>
<path d="M3177 3113 c5 -13 2 -15 -11 -10 -9 4 -15 3 -11 -2 3 -6 14 -9 24 -8
16 1 17 5 10 19 -12 23 -20 24 -12 1z"/>
<path d="M6221 3117 c-8 -11 -5 -19 13 -36 19 -18 26 -20 32 -9 4 7 3 10 -1 5
-5 -4 -17 0 -27 9 -14 13 -15 20 -7 31 6 7 9 13 6 13 -2 0 -10 -6 -16 -13z"/>
<path d="M10537 3113 c5 -13 2 -15 -11 -10 -9 4 -15 3 -11 -2 3 -6 14 -9 24
-8 16 1 17 5 10 19 -12 23 -20 24 -12 1z"/>
<path d="M6799 3073 c-13 -16 -12 -17 4 -4 16 13 21 21 13 21 -2 0 -10 -8 -17
-17z"/>
<path d="M3075 3070 c-4 -6 -12 -7 -18 -4 -7 4 -9 4 -5 -1 4 -4 2 -15 -4 -24
-7 -9 0 -5 15 8 15 14 27 26 27 28 0 7 -9 3 -15 -7z"/>
<path d="M6294 3064 c-18 -14 -18 -15 4 -4 12 6 22 13 22 15 0 8 -5 6 -26 -11z"/>
<path d="M6739 3078 c-7 -32 -7 -48 3 -54 7 -4 8 -3 4 5 -4 6 -3 18 4 26 7 9
8 15 0 20 -5 3 -10 5 -11 3z"/>
<path d="M10435 3070 c-4 -6 -12 -7 -18 -4 -7 4 -9 4 -5 -1 4 -4 2 -15 -4 -24
-7 -9 0 -5 15 8 15 14 27 26 27 28 0 7 -9 3 -15 -7z"/>
<path d="M6165 3060 c3 -5 11 -10 16 -10 6 0 7 5 4 10 -3 6 -11 10 -16 10 -6
0 -7 -4 -4 -10z"/>
<path d="M3096 3036 c6 -16 4 -18 -12 -12 -15 6 -17 5 -6 -5 9 -10 15 -10 24
-1 9 9 9 15 -1 25 -10 10 -11 8 -5 -7z"/>
<path d="M10456 3036 c6 -16 4 -18 -12 -12 -15 6 -17 5 -6 -5 9 -10 15 -10 24
-1 9 9 9 15 -1 25 -10 10 -11 8 -5 -7z"/>
<path d="M6315 3000 c10 -11 20 -20 23 -20 3 0 -3 9 -13 20 -10 11 -20 20 -23
20 -3 0 3 -9 13 -20z"/>
<path d="M6719 2993 c-13 -16 -12 -17 4 -4 9 7 17 15 17 17 0 8 -8 3 -21 -13z"/>
<path d="M2979 2973 c-13 -16 -12 -17 4 -4 16 13 21 21 13 21 -2 0 -10 -8 -17
-17z"/>
<path d="M6659 2973 c-13 -16 -12 -17 4 -4 9 7 17 15 17 17 0 8 -8 3 -21 -13z"/>
<path d="M10339 2973 c-13 -16 -12 -17 4 -4 9 7 17 15 17 17 0 8 -8 3 -21 -13z"/>
<path d="M6380 2936 c0 -2 8 -10 18 -17 15 -13 16 -12 3 4 -13 16 -21 21 -21
13z"/>
<path d="M2899 2893 c-13 -16 -12 -17 4 -4 16 13 21 21 13 21 -2 0 -10 -8 -17
-17z"/>
<path d="M10259 2893 c-13 -16 -12 -17 4 -4 16 13 21 21 13 21 -2 0 -10 -8
-17 -17z"/>
<path d="M3404 2251 c-2 -3 8 -17 23 -33 l27 -28 1241 0 1241 0 27 28 c15 15
27 30 27 33 0 5 -2580 5 -2586 0z"/>
<path d="M5975 2220 l-29 -30 579 0 579 0 -29 30 -29 30 -521 0 -521 0 -29
-30z"/>
<path d="M5621 1936 c-12 -15 -5 -46 11 -46 6 0 5 7 -2 15 -11 13 -10 18 6 30
10 8 14 15 8 15 -6 0 -17 -6 -23 -14z"/>
<path d="M6105 1890 c-3 -5 3 -10 15 -10 12 0 18 5 15 10 -3 6 -10 10 -15 10
-5 0 -12 -4 -15 -10z"/>
<path d="M5556 1841 c-4 -5 -2 -12 3 -15 5 -4 12 -2 15 3 4 5 2 12 -3 15 -5 4
-12 2 -15 -3z"/>
<path d="M6266 1823 c-11 -11 -6 -23 9 -23 8 0 15 4 15 9 0 13 -16 22 -24 14z"/>
<path d="M7510 1806 c0 -2 8 -10 18 -17 15 -13 16 -12 3 4 -13 16 -21 21 -21
13z"/>
</g>
</svg>
